<svg xmlns="http://www.w3.org/2000/svg" viewBox="0 0 843.6702 382.6776"><g id="logo"><rect x="670.7306" y="123.0201" width="8.8587" height="206.3348" transform="translate(-34.0205 289.9437) rotate(-23.6587)" fill="#f8f3f7"/><path d="M714.09,78.566A94.867,94.867,0,1,1,589.1383,29.71,94.8651,94.8651,0,0,1,714.09,78.566Z" fill="#e870a6"/><path d="M627.1855,116.6132s-49.7128-20.6807-49.1784-81.1309c0,0,15.7819-14.5521,47.5585-13.74C625.5656,21.742,598.1759,69.3407,627.1855,116.6132Z" fill="#fdfadb"/><path d="M665.8689,29.9965s-40.4218,20.2041-38.6834,86.6167c0,0,21.0921-49.2664,69.0461-65.0767C696.2316,51.5365,681.5355,35.4,665.8689,29.9965Z" fill="#fdfadb"/><path d="M627.1855,116.6132s38.3619-40.31,90.1043-29.693c0,0,6.1691,16.9706,4.7453,31.6176C722.0351,118.5378,682.6112,100.1721,627.1855,116.6132Z" fill="#fdfadb"/><path d="M627.1855,116.6132s57.1575,5.9547,83.4784,45.0236c0,0-11.7907,18.9271-20.1823,25.6459C690.4816,187.2827,686.5111,154.9582,627.1855,116.6132Z" fill="#fdfadb"/><path d="M627.1855,116.6132s40.1141,47.883,21.1291,92.4955c0,0-19.9284,5.2509-36.1024,1.1738C612.2122,210.2825,642.8559,182.864,627.1855,116.6132Z" fill="#fdfadb"/><path d="M544.4548,70.1848s17.4732,60.7643,82.7307,46.4284c0,0-45.485,37.6062-94.8528,2.1715A80.3108,80.3108,0,0,1,544.4548,70.1848Z" fill="#fdfadb"/><path d="M545.4561,164.7823s59.3693-4.2265,81.7294-48.1691c0,0-2.1647,60.1288-58.412,74.764C568.7735,191.3772,550.2963,177.8108,545.4561,164.7823Z" fill="#fdfadb"/><path d="M712.3991,94.6843s-21.7617-59.6873-65.1328-66.67-78.9867,22.5107-89.59,39.2261c-10.6134,16.715,39.6913-32.8659,68.268-26.2769C709.7675,60.2865,715.3887,128.6913,712.3991,94.6843Z" fill="#fff" opacity="0.5"/><rect x="629.0699" y="209.3347" width="206.3325" height="8.8587" transform="translate(419.4238 909.4746) rotate(-82.0642)" fill="#f8f3f7"/><path d="M842.7454,108.4314A94.868,94.868,0,1,1,761.9189,1.345,94.8678,94.8678,0,0,1,842.7454,108.4314Z" fill="#e870a6"/><path d="M748.789,95.3s-31.5061-43.6635.6258-94.8715c0,0,21.0682-4.1229,47.7106,13.2166C797.1254,13.6448,748.85,39.8372,748.789,95.3Z" fill="#fdfadb"/><path d="M827.1227,41.7955S782.1078,37.8229,748.789,95.3c0,0,43.78-30.909,92.908-19.2485C841.697,76.0512,837.6347,54.6075,827.1227,41.7955Z" fill="#fdfadb"/><path d="M748.789,95.3s53.7951-14.2341,92.3026,21.9241c0,0-3.6359,17.6861-12.5211,29.4158C828.5705,146.64,804.6137,110.3374,748.789,95.3Z" fill="#fdfadb"/><path d="M748.789,95.3s45.5628,35.0187,47.511,82.0882c0,0-19.9589,9.9439-30.63,11.27C765.67,188.6576,779.2262,159.044,748.789,95.3Z" fill="#fdfadb"/><path d="M748.789,95.3s9.078,61.8013-30.4678,89.8505c0,0-19.7254-5.97-31.3637-17.9158C686.9575,167.2344,727.4232,159.9352,748.789,95.3Z" fill="#fdfadb"/><path d="M702.6546,12.4035S685.6992,73.3133,748.789,95.3c0,0-58.4459,8.1952-81.9223-47.8526A80.3106,80.3106,0,0,1,702.6546,12.4035Z" fill="#fdfadb"/><path d="M653.94,93.4987s52.7769,27.51,94.8493,1.801c0,0-33.3494,50.0765-88.9237,33.0705C659.8653,128.37,651.2371,107.1326,653.94,93.4987Z" fill="#fdfadb"/><path d="M832.8589,121.2726S845.6,59.0317,812.3185,30.36,733.2508,8.1452,715.4566,16.8239C697.6589,25.5,766.4886,9.63,787.3706,30.2178,848.6409,90.5949,817.5882,151.8026,832.8589,121.2726Z" fill="#fff" opacity="0.5"/><path d="M46.387,169.7361q-.8615.8613-2.7471,3.1767a41.5187,41.5187,0,0,0-3.4346,4.8946,12.1934,12.1934,0,0,0-1.8027,4.8085,2.9945,2.9945,0,0,0,2.1465,3.2627,11.512,11.512,0,0,0,5.4092.5147,39.5582,39.5582,0,0,0,6.5253-1.2881q3.3487-.9418,6.3545-2.06,3.003-1.1148,4.7227-1.8028,4.2891-2.061,8.7578-4.6367a66.2345,66.2345,0,0,0,8.4141-5.7529,62.6684,62.6684,0,0,0,7.2129-6.7832,36.3534,36.3534,0,0,0,5.3242-7.5567,16.6231,16.6231,0,0,0,1.8886-5.8388,9.0742,9.0742,0,0,0-.6875-5.0655,7.7447,7.7447,0,0,0-3.3476-3.4345,10.0922,10.0922,0,0,0-5.9258-.9444,41.786,41.786,0,0,0-10.7324,2.7471,90.3855,90.3855,0,0,1-11.42,3.6064,27.9688,27.9688,0,0,1-10.8184.6016q-5.1532-.7734-8.9307-6.44a16.1814,16.1814,0,0,1-2.6611-12.45,32.8112,32.8112,0,0,1,5.4082-12.3643A59.6929,59.6929,0,0,1,55.7463,106.11a92.0933,92.0933,0,0,1,10.0469-7.8135,98.5791,98.5791,0,0,1,11.9346-6.6973,69.8352,69.8352,0,0,1,13.91-4.98,45.9427,45.9427,0,0,1,14.167-1.2022,23.4888,23.4888,0,0,1,12.709,4.8086,9.1826,9.1826,0,0,1,3.1758,4.1221,6.5131,6.5131,0,0,1,.0859,4.293,7.84,7.84,0,0,1-2.5752,3.6064,11.6741,11.6741,0,0,1-4.6367,2.2324,145.57,145.57,0,0,0-22.4971,7.2119,91.6849,91.6849,0,0,0-21.2939,12.0215q-5.6675,4.4678-5.2373,6.5254.4263,2.061,8.1562-.8584a47.8949,47.8949,0,0,1,13.6524-2.9189,31.1847,31.1847,0,0,1,13.8242,2.06q7.5557,2.9225,11.1631,8.5a26.6086,26.6086,0,0,1,4.207,12.1934,35.979,35.979,0,0,1-1.46,13.5664,49.6034,49.6034,0,0,1-5.666,12.6221,62.29,62.29,0,0,1-12.709,14.3388,90.7536,90.7536,0,0,1-15.9707,10.5615A92.5288,92.5288,0,0,1,68.54,205.6267,63.27,63.27,0,0,1,54.9739,208.89a48.9719,48.9719,0,0,1-13.5674-.1719,26.8293,26.8293,0,0,1-12.1914-5.1524q-6.6973-4.8047-7.9-11.0761a21.1461,21.1461,0,0,1,1.2021-12.1924A27.4986,27.4986,0,0,1,30.33,169.7361a29.8633,29.8633,0,0,1,11.9356-6.3545,3.9541,3.9541,0,0,1,2.5761.1718,4.2155,4.2155,0,0,1,1.8887,1.5459,4.1,4.1,0,0,1,.6875,2.3184A3.2034,3.2034,0,0,1,46.387,169.7361Z" fill="#e870a6"/><path d="M271.5227,149.987a7.1959,7.1959,0,0,1,3.4346,5.4092,10.8775,10.8775,0,0,1-1.0313,6.0967,8.7111,8.7111,0,0,1-3.9492,4.0352q-2.5752,1.289-5.667-.6006l-13.0517-7.8994a161.5767,161.5767,0,0,1-16.6573,22.582,116.8208,116.8208,0,0,1-18.375,16.5723q-3.6064,2.5752-7.7275,5.1513a43.0468,43.0468,0,0,1-8.501,4.1221,26.6544,26.6544,0,0,1-8.93,1.5449,16.9794,16.9794,0,0,1-8.8447-2.5752q-7.7271-4.8062-9.7881-12.1933a39.4034,39.4034,0,0,1-1.03-15.627q-3.0908,4.6362-6.3535,9.1016-3.2637,4.4678-6.6972,8.7578a55.7291,55.7291,0,0,1-6.9551,6.7832,30.34,30.34,0,0,1-8.2442,4.8945,19.47,19.47,0,0,1-9.0156,1.2881,16.14,16.14,0,0,1-8.93-4.0361,18.0239,18.0239,0,0,1-6.8691-10.1319,30.32,30.32,0,0,1-.3438-12.0205,52.08,52.08,0,0,1,3.6934-12.2793q2.6631-6.0922,5.2373-11.0761A204.7211,204.7211,0,0,1,141.61,134.532a130.3062,130.3062,0,0,1,18.461-20.6084q3.9492-3.6051,8.2431-2.919a12.7949,12.7949,0,0,1,7.2119,3.6065,12.073,12.073,0,0,1,3.4356,7.3838,9.944,9.944,0,0,1-3.0918,8.2431q-4.9835,5.3247-9.874,11.334-4.894,6.0132-9.3594,12.4512-4.4677,6.4394-8.2432,13.0508a107.9639,107.9639,0,0,0-6.3535,12.9658q-2.5767,6.1816-1.0312,6.4394t5.6679-3.1767a99.7093,99.7093,0,0,0,13.91-13.91q6.1817-7.5542,11.8486-15.1123,6.6987-8.9268,11.0772-15.1973,4.3784-6.268,7.2978-10.8193,2.918-4.5483,4.9805-7.5557a38.1478,38.1478,0,0,1,4.4648-5.41,10.0747,10.0747,0,0,1,7.8994-3.3486,11.7429,11.7429,0,0,1,7.2989,2.92,12.6161,12.6161,0,0,1,3.9492,6.8691,10.6164,10.6164,0,0,1-1.9746,8.5,132.9564,132.9564,0,0,0-7.4707,12.1934q-3.8643,7.043-7.3838,14.4248-3.5229,7.3857-6.2686,14.5107a85.1221,85.1221,0,0,0-3.9492,12.794,15.8487,15.8487,0,0,0-.6016,5.41q.2578,1.8018,1.2881,2.0606a3.262,3.262,0,0,0,2.49-.6875,26.864,26.864,0,0,0,3.3486-2.6612,126.0249,126.0249,0,0,0,9.5313-9.9609q5.0625-5.8359,9.874-12.45,4.8062-6.608,8.7588-13.3086a75.6023,75.6023,0,0,0,6.01-12.3642,24.3856,24.3856,0,0,1-2.2324-12.6221,20.7657,20.7657,0,0,1,3.6924-10.0469,15.2577,15.2577,0,0,1,7.6416-5.667,13.3832,13.3832,0,0,1,9.6172.5156,11.3453,11.3453,0,0,1,4.8945,4.0352,15.5926,15.5926,0,0,1,2.4043,6.1826,31.1119,31.1119,0,0,1,.2578,7.7276,56.0419,56.0419,0,0,1-1.375,8.5009q3.0922,2.7482,6.1826,5.4952A72.2359,72.2359,0,0,0,271.5227,149.987Z" fill="#e870a6"/><path d="M281.4827,183.4743a14.7545,14.7545,0,0,0,9.3593,3.0049,33.47,33.47,0,0,0,10.9043-2.1465,63.574,63.574,0,0,0,11.42-5.581,125.19,125.19,0,0,0,10.9043-7.4707q5.1532-3.9477,9.2734-7.8135,4.122-3.8628,6.5254-6.6113a5.8449,5.8449,0,0,1,3.4355-2.3184,3.4079,3.4079,0,0,1,2.833.6865,4.4175,4.4175,0,0,1,1.3741,2.92,7.6171,7.6171,0,0,1-.7735,4.207,93.649,93.649,0,0,1-24.5566,31.4268,84.2041,84.2041,0,0,1-10.39,6.955,59.2217,59.2217,0,0,1-11.5908,5.0655,46.9272,46.9272,0,0,1-12.1933,2.1465,32.2219,32.2219,0,0,1-12.3653-1.9747,28.9212,28.9212,0,0,1-11.7627-7.2128,27.5311,27.5311,0,0,1-6.2685-10.3887,35.0043,35.0043,0,0,1-1.6309-12.3653,58.8508,58.8508,0,0,1,2.0606-13.2226,73.3343,73.3343,0,0,1,4.8086-12.794,85.1828,85.1828,0,0,1,6.4394-11.1621,113.789,113.789,0,0,1,7.6426-9.5312,68.4018,68.4018,0,0,1,9.1875-8.586,57.7642,57.7642,0,0,1,10.56-6.5263,36.5392,36.5392,0,0,1,11.7637-3.3487,26.332,26.332,0,0,1,13.9961,2.1465A22.4651,22.4651,0,0,1,333,122.5105a23.0481,23.0481,0,0,1,3.35,12.708,32.069,32.069,0,0,1-3.0918,12.5361,42.103,42.103,0,0,1-7.6416,11.0762,45.644,45.644,0,0,1-10.1319,8.1572,39.6871,39.6871,0,0,1-17.4306,5.7529,49.2466,49.2466,0,0,1-17.4307-1.9746,24.36,24.36,0,0,0-1.459,7.3838A6.1534,6.1534,0,0,0,281.4827,183.4743Zm15.9707-27.82a27.5611,27.5611,0,0,0,11.5058-8.415,33.6778,33.6778,0,0,0,2.919-4.1211,16.0752,16.0752,0,0,0,2.2324-5.3232q.8569-2.9181-.6865-3.52a5.2467,5.2467,0,0,0-3.6065.0859,16.16,16.16,0,0,0-5.581,3.0049q-2.6646,2.1489-4.7227,4.0361a68.5952,68.5952,0,0,0-6.6973,7.3838,93.8859,93.8859,0,0,0-5.6679,8.0713A23.6964,23.6964,0,0,0,297.4534,155.654Z" fill="#e870a6"/><path d="M362.0217,183.4743a14.7569,14.7569,0,0,0,9.3594,3.0049,33.465,33.465,0,0,0,10.9043-2.1465,63.5082,63.5082,0,0,0,11.42-5.581,125.1919,125.1919,0,0,0,10.9053-7.4707q5.1519-3.9477,9.2734-7.8135,4.1206-3.8628,6.5254-6.6113a5.8464,5.8464,0,0,1,3.4346-2.3184,3.411,3.411,0,0,1,2.834.6865,4.4214,4.4214,0,0,1,1.373,2.92,7.6306,7.6306,0,0,1-.7715,4.207,93.664,93.664,0,0,1-24.5586,31.4268,84.198,84.198,0,0,1-10.3886,6.955,59.2614,59.2614,0,0,1-11.5918,5.0655,46.92,46.92,0,0,1-12.1934,2.1465,32.2161,32.2161,0,0,1-12.3642-1.9747,28.92,28.92,0,0,1-11.7627-7.2128,27.5059,27.5059,0,0,1-6.2686-10.3887,34.9815,34.9815,0,0,1-1.6318-12.3653A58.9018,58.9018,0,0,1,338.58,162.781a73.4228,73.4228,0,0,1,4.8086-12.794,85.1943,85.1943,0,0,1,6.44-11.1621,113.7874,113.7874,0,0,1,7.6425-9.5312,68.4681,68.4681,0,0,1,9.1875-8.586,57.776,57.776,0,0,1,10.5616-6.5263,36.5328,36.5328,0,0,1,11.7627-3.3487,26.3321,26.3321,0,0,1,13.9961,2.1465,22.4678,22.4678,0,0,1,10.5615,9.5313,23.0461,23.0461,0,0,1,3.3486,12.708,32.0677,32.0677,0,0,1-3.0908,12.5361,42.1505,42.1505,0,0,1-7.6416,11.0762,45.648,45.648,0,0,1-10.1328,8.1572,39.6836,39.6836,0,0,1-17.43,5.7529,49.2443,49.2443,0,0,1-17.4307-1.9746,24.3664,24.3664,0,0,0-1.46,7.3838A6.1585,6.1585,0,0,0,362.0217,183.4743Zm15.9707-27.82a27.5607,27.5607,0,0,0,11.5059-8.415,33.6772,33.6772,0,0,0,2.92-4.1211,16.1133,16.1133,0,0,0,2.2324-5.3232q.857-2.9181-.6875-3.52a5.2436,5.2436,0,0,0-3.6054.0859,16.1556,16.1556,0,0,0-5.5821,3.0049q-2.6631,2.1489-4.7226,4.0361a68.5952,68.5952,0,0,0-6.6973,7.3838,93.8739,93.8739,0,0,0-5.667,8.0713A23.6917,23.6917,0,0,0,377.9924,155.654Z" fill="#e870a6"/><path d="M489.2717,117.1872a14.4105,14.4105,0,0,1-5.0664,5.4092,26.09,26.09,0,0,1-6.9551,3.0049,35.1677,35.1677,0,0,1-7.8134,1.2021q-4.0371.173-7.6416,0-2.234,3.7794-5.8389,10.39-3.6064,6.6138-7.2129,14.082-3.6065,7.4707-6.7832,14.94a77.0133,77.0133,0,0,0-4.3789,12.7939q-1.5455,5.4975.0859,7.126,1.63,1.6347,6.6114-1.6309a46.6016,46.6016,0,0,0,7.4707-6.0107q3.69-3.6064,7.04-7.47,3.3486-3.8643,6.3545-7.6426,3.003-3.7749,5.2373-6.6973a7.0139,7.0139,0,0,1,3.52-2.9189,3.3369,3.3369,0,0,1,2.92.2578,3.65,3.65,0,0,1,1.3741,2.6611,7.4665,7.4665,0,0,1-.9454,4.293q-2.748,5.84-5.581,11.7636-2.833,5.9253-6.0108,11.42a76.7369,76.7369,0,0,1-7.04,10.2177,44.8754,44.8754,0,0,1-8.6728,8.1573,28.0068,28.0068,0,0,1-13.0508,4.98,17.9042,17.9042,0,0,1-13.2237-3.6064,17.598,17.598,0,0,1-6.6113-8.501,31.7582,31.7582,0,0,1-1.8037-10.7324,54.5188,54.5188,0,0,1,1.2031-11.334,106.71,106.71,0,0,1,2.7471-10.4756q1.2027-4.29,2.9189-8.6728,1.7154-4.3785,3.8643-9.1875,2.1461-4.8048,4.8086-10.39,2.66-5.578,6.0967-12.2783a27.5007,27.5007,0,0,1-4.5518-1.03,8.5089,8.5089,0,0,1-3.5195-2.0605,4.6268,4.6268,0,0,1-.8594-5.2383,14.2681,14.2681,0,0,1,4.294-5.5811,25.445,25.445,0,0,1,7.47-4.207,18.31,18.31,0,0,1,8.6719-1.1162,81.6932,81.6932,0,0,1,5.2382-6.6973,44.9768,44.9768,0,0,1,6.0967-5.8388,19.6559,19.6559,0,0,1,6.2676-3.2627,18.4682,18.4682,0,0,1,7.1269-.9444,11.9267,11.9267,0,0,1,6.1827,2.2325,9.0836,9.0836,0,0,1,3.4345,6.2675A12.3437,12.3437,0,0,1,481.63,102.59a40.0922,40.0922,0,0,1-4.208,6.6982,28.4417,28.4417,0,0,0,3.95,1.1162,19.2907,19.2907,0,0,0,3.9492.4287,3.9617,3.9617,0,0,1,3.95,2.1465A4.5553,4.5553,0,0,1,489.2717,117.1872Z" fill="#e870a6"/><path d="M1.386,306.1667a48.17,48.17,0,0,1,8.6728-17.6015,70.8269,70.8269,0,0,1,14.6817-14.2539,75.7121,75.7121,0,0,1,18.1181-9.7032,60.8565,60.8565,0,0,1,18.9756-3.9492,45.5782,45.5782,0,0,1,17.1739,2.833,39.8623,39.8623,0,0,1,13.7382,8.6729,38.2405,38.2405,0,0,1,8.93,13.3945,41.2231,41.2231,0,0,1,2.7471,17.001,58.4679,58.4679,0,0,1-4.98,20.9512,96.5607,96.5607,0,0,1-11.248,19.1474,107.4984,107.4984,0,0,1-15.3711,16.4863,127.1,127.1,0,0,1-17.3438,12.794,85.0568,85.0568,0,0,1-8.5859,4.3789,69.0478,69.0478,0,0,1-10.2188,3.6064,65.1667,65.1667,0,0,1-10.8183,1.9747,30.0918,30.0918,0,0,1-10.2188-.6866,21.0865,21.0865,0,0,1-8.5859-4.3789,19.1073,19.1073,0,0,1-5.667-8.8447A22.3833,22.3833,0,0,1,.1838,357.3425a44.241,44.241,0,0,1,2.834-10.9053,69.9948,69.9948,0,0,1,5.1514-10.39q3.0028-4.9789,5.9248-8.93,3.0907-4.122,6.5254-8.2432t7.1269-7.9853a97.3615,97.3615,0,0,1,7.5567-7.127,46.359,46.359,0,0,1,7.6416-5.3232,8.37,8.37,0,0,1,4.6357-1.03,8.5667,8.5667,0,0,1,4.208,1.374,6.61,6.61,0,0,1,2.5762,3.2627,6.34,6.34,0,0,1-.0859,4.4649,25.4579,25.4579,0,0,1-3.8643,7.3838q-2.6631,3.6065-4.7227,6.8691-5.3247,8.0742-11.248,16.5723a133.8349,133.8349,0,0,0-10.39,17.6025q-1.3755,2.921-.6866,4.0352a2.616,2.616,0,0,0,2.5762,1.03,14.8675,14.8675,0,0,0,4.5508-1.1162q2.66-1.03,5.1514-2.1465a43.9911,43.9911,0,0,0,4.38-2.2324A18.6087,18.6087,0,0,1,42.429,353.22,88.2161,88.2161,0,0,0,53.85,345.0632a116.86,116.86,0,0,0,10.2167-9.7021,110.3863,110.3863,0,0,0,7.2129-8.93,63.53,63.53,0,0,0,6.4395-10.9053,38.2089,38.2089,0,0,0,3.35-11.6777,19.96,19.96,0,0,0-2.0605-11.42,12.845,12.845,0,0,0-5.84-6.1816,20.9441,20.9441,0,0,0-8.2422-2.1475,34.5328,34.5328,0,0,0-9.0156.6875,60.4161,60.4161,0,0,0-8.33,2.3184,74.982,74.982,0,0,0-18.46,9.7881A58.5667,58.5667,0,0,0,14.094,312.1775a9.9417,9.9417,0,0,1-4.8086,4.1211,5.8662,5.8662,0,0,1-4.6367-.1709,6.8562,6.8562,0,0,1-3.1768-3.6924A9.3153,9.3153,0,0,1,1.386,306.1667Z" fill="#e870a6"/><path d="M183.4163,306.1667a37.4215,37.4215,0,0,0-16.7442,1.7178,55.1136,55.1136,0,0,0-14.8545,7.8135,76.4734,76.4734,0,0,0-12.45,11.5058,94.87,94.87,0,0,0-9.5312,12.9659q-6.87,11.3334-6.6113,14.8545t4.7226,1.1162q4.4634-2.4039,11.5918-9.7891a135.8719,135.8719,0,0,0,14.168-17.6875q1.7139-2.4037,3.6914-4.9805a37.5383,37.5383,0,0,1,4.2929-4.7226,22.4705,22.4705,0,0,1,5.2383-3.6065,18.1755,18.1755,0,0,1,6.3535-1.8027,13.2758,13.2758,0,0,1,6.9551,1.03,9.7769,9.7769,0,0,1,4.293,3.8633,9.9941,9.9941,0,0,1,1.2031,5.9248,16.7561,16.7561,0,0,1-2.49,7.2128,50.821,50.821,0,0,1-2.7481,4.379q-1.7182,2.4916-3.52,5.4091-1.8032,2.9225-3.4345,5.9248a45.8923,45.8923,0,0,0-2.6622,5.753q-1.3753,3.7792.6875,3.52,2.06-.2579,5.4952-3.1768a105.2123,105.2123,0,0,0,11.9345-11.7637q5.4113-6.2666,10.3907-11.5918a3.9119,3.9119,0,0,1,2.1464-1.2021,3.194,3.194,0,0,1,2.0606.3437,3.4218,3.4218,0,0,1,1.459,1.6319,4.1143,4.1143,0,0,1,.1719,2.6611,56.17,56.17,0,0,1-5.752,13.9961,102.0659,102.0659,0,0,1-10.3906,15.37,85.6185,85.6185,0,0,1-12.8789,12.88q-6.87,5.4977-13.0518,6.3535a18.233,18.233,0,0,1-7.7275-.6006,15.7054,15.7054,0,0,1-6.1817-3.52,17.7179,17.7179,0,0,1-4.122-5.9248,18.7974,18.7974,0,0,1-1.5459-7.6425,35.8291,35.8291,0,0,1,.6015-6.5254,54.3273,54.3273,0,0,1,1.6309-6.5254q-2.921,4.982-6.1817,10.8183a64.9857,64.9857,0,0,1-7.3847,10.6475,30.07,30.07,0,0,1-9.1875,7.3848,16.4918,16.4918,0,0,1-11.5918,1.03q-7.3814-1.7153-10.4746-6.6972a24.0994,24.0994,0,0,1-3.5215-11.2491,41.74,41.74,0,0,1,1.2031-12.8789,69.0376,69.0376,0,0,1,3.8633-11.5918A99.4742,99.4742,0,0,1,117.3,315.0105a95.8364,95.8364,0,0,1,20.7793-18.6319,71.2707,71.2707,0,0,1,11.9346-6.44,54.684,54.684,0,0,1,13.4815-3.8633,39.9413,39.9413,0,0,1,13.5664.2569,27.5549,27.5549,0,0,1,12.3642,5.9248,7.3312,7.3312,0,0,1,2.6621,4.38,8.25,8.25,0,0,1-3.6064,8.414A7.2006,7.2006,0,0,1,183.4163,306.1667Z" fill="#e870a6"/><path d="M240.6008,317.1579a27.58,27.58,0,0,0,3.2627-6.955q.5157-2.3188-.6015-3.0918a4.2032,4.2032,0,0,0-3.3477-.2569,23.4749,23.4749,0,0,0-4.8945,1.8028q-2.6646,1.2876-5.3242,2.8339a36.0685,36.0685,0,0,0-4.379,2.919q-6.1815,4.4678-8.07,7.6416-1.8925,3.18-1.0312,4.5508a2.3708,2.3708,0,0,0,2.06.9453q1.547.0879,3.6075,0a30.7624,30.7624,0,0,0,4.0351-.43,19.5062,19.5062,0,0,1,3.1768-.3437,21.8116,21.8116,0,0,1,10.39,1.374,17.9745,17.9745,0,0,1,7.2988,5.3232,18.7511,18.7511,0,0,1,3.6915,8.1572,25.8515,25.8515,0,0,1-.086,10.0469,32.1137,32.1137,0,0,0,6.2686-4.8086,78.2981,78.2981,0,0,0,5.581-6.0107q2.5752-3.0909,4.6367-6.0967,2.0611-3.0015,3.6065-4.8936a7.8034,7.8034,0,0,1,3.6924-2.92,2.9525,2.9525,0,0,1,2.833.3438,3.8736,3.8736,0,0,1,1.2021,2.747,7.6582,7.6582,0,0,1-1.373,4.4649,160.5019,160.5019,0,0,1-13.91,21.7246,84.058,84.058,0,0,1-17.5166,17.0869,43.0019,43.0019,0,0,1-9.874,5.0654,68.683,68.683,0,0,1-12.0215,3.2627,64.81,64.81,0,0,1-12.2793,1.03,35.2874,35.2874,0,0,1-10.6465-1.6308,28.8476,28.8476,0,0,1-4.8945-2.3184,24.3165,24.3165,0,0,1-4.5508-3.4346,16.87,16.87,0,0,1-3.3486-4.4648,11.5935,11.5935,0,0,1-1.2881-5.4092,11.0643,11.0643,0,0,1,2.06-6.5264,13.2581,13.2581,0,0,1,5.0665-4.3789,12.8531,12.8531,0,0,1,6.3535-1.2881,10.3333,10.3333,0,0,1,6.0967,2.4043,31.3851,31.3851,0,0,0,8.415,5.3233q1.03-.1685,4.207-2.4893a59.3352,59.3352,0,0,0,6.3535-5.41,55.7162,55.7162,0,0,0,5.41-6.01q2.2294-2.9195,1.373-4.4658a2.517,2.517,0,0,0-2.4043-.9444,10.7454,10.7454,0,0,0-2.747.43,35.1807,35.1807,0,0,1-8.5869.6866A28.72,28.72,0,0,1,209.69,341.2a19.1815,19.1815,0,0,1-6.9551-4.208,15.281,15.281,0,0,1-4.207-7.6416,22.0618,22.0618,0,0,1-.5156-10.5615,32.9651,32.9651,0,0,1,3.7783-10.0459,42.9431,42.9431,0,0,1,6.6113-8.7578,58.6283,58.6283,0,0,1,7.9854-6.8692,55.1368,55.1368,0,0,1,9.5312-4.98,42.3317,42.3317,0,0,1,10.99-2.92,26.46,26.46,0,0,1,10.8184.8593,18.121,18.121,0,0,1,9.0166,6.1817,15.4162,15.4162,0,0,1,3.52,8.8447,20.139,20.139,0,0,1-1.5459,9.0156,24.0886,24.0886,0,0,1-13.3086,12.88q-3.438,1.03-4.98-.8594Q238.8836,320.2507,240.6008,317.1579Z" fill="#e870a6"/><path d="M301.7346,315.44l-4.8086,8.5869q2.7452-3.6065,5.4942-7.127,2.745-3.5186,5.6679-6.955,3.4337-4.1222,8.1563-9.3594a62.8381,62.8381,0,0,1,10.1328-9.1016,31.69,31.69,0,0,1,11.42-5.2373,17.2724,17.2724,0,0,1,12.1934,1.8887,15.693,15.693,0,0,1,5.666,4.8086,17.6293,17.6293,0,0,1,2.834,6.4394,21.7605,21.7605,0,0,1,.3437,7.2129,36.4086,36.4086,0,0,1-1.6318,7.2979,88.6266,88.6266,0,0,1-10.0459,20.1787q-6.2711,9.3618-12.2793,18.4609-2.921,4.4678-3.3477,6.6973-.4307,2.2338.7715,2.6621,1.2012.4307,3.7793-.8594a27.0182,27.0182,0,0,0,5.666-4.0351,66.74,66.74,0,0,0,6.44-6.2686q3.0014-3.3486,6.0966-6.4394,3.4337-3.6064,6.8692-7.2989,3.4335-3.69,6.8691-7.6416a6.1325,6.1325,0,0,1,3.0908-2.06,3.2283,3.2283,0,0,1,2.5752.3428,3.3955,3.3955,0,0,1,1.375,2.1474,4.6574,4.6574,0,0,1-.5156,3.1768q-1.377,2.5752-3.7783,6.1816-2.4067,3.6065-5.0654,7.2988-2.6661,3.6943-5.3243,7.127-2.663,3.4365-4.3789,5.667-3.0908,4.122-6.955,8.8437a47.4906,47.4906,0,0,1-8.5,8.1573,29.887,29.887,0,0,1-9.961,4.8945,16.94,16.94,0,0,1-11.1621-.9443,17.84,17.84,0,0,1-7.6426-5.5811,19.8349,19.8349,0,0,1-3.6054-7.8145,24.8959,24.8959,0,0,1-.2578-9.0156,46.0644,46.0644,0,0,1,2.2324-9.0156,68.1428,68.1428,0,0,1,5.41-11.0762q3.1743-5.2368,6.6114-10.1318,3.4335-4.8955,7.041-9.6172a106.56,106.56,0,0,0,6.6972-9.874q1.8869-3.0923,1.2872-3.8643-.6036-.7734-2.919.3438a39.9689,39.9689,0,0,0-6.0107,3.8633q-3.6943,2.7495-8.3282,6.8691a93.5789,93.5789,0,0,0-9.789,9.875q-4.4677,5.24-8.93,10.7324-3.6064,4.4677-7.127,8.8447-3.5214,4.3785-6.5254,8.93a73.77,73.77,0,0,0-5.3242,9.53A43.4007,43.4007,0,0,0,278.8948,374a8.9051,8.9051,0,0,1-2.4043,4.9805,9.8161,9.8161,0,0,1-4.294,2.5752,10.8822,10.8822,0,0,1-4.8935.2578,10.2877,10.2877,0,0,1-4.38-1.8027,10.1485,10.1485,0,0,1-3.95-5.8389,24.5553,24.5553,0,0,1-.6865-8.3291,58.3842,58.3842,0,0,1,1.5459-9.4453,95.6912,95.6912,0,0,1,2.834-9.4443q1.6332-4.5485,3.2617-8.4151,1.6347-3.8641,2.6621-6.0967,5.32-12.19,11.6777-23.7841,6.3516-11.5914,13.5664-22.5821,1.5469-2.4038,4.1211-6.3545,2.5767-3.9477,5.7539-8.1572,3.1758-4.2055,6.8692-8.2422a41.7162,41.7162,0,0,1,7.5556-6.6123,19.3857,19.3857,0,0,1,7.9854-3.1767,10.87,10.87,0,0,1,7.8994,1.9746,10.4748,10.4748,0,0,1,4.8086,6.9551,14.2843,14.2843,0,0,1-1.03,8.6728,47.9115,47.9115,0,0,1-4.8945,8.5,97.6438,97.6438,0,0,1-7.127,8.7588q-4.1205,4.5513-9.3593,9.874-5.24,5.3247-11.5918,11.6778Z" fill="#e870a6"/><path d="M430.8713,256.0222q4.2906,3.4365,4.8946,7.8135a21.3211,21.3211,0,0,1-.7725,9.0156,36.7515,36.7515,0,0,1-4.0361,8.93q-2.6646,4.2949-4.8946,7.2129a21.606,21.606,0,0,1,4.9805,3.8642,35.4254,35.4254,0,0,1,3.95,4.8946,108.3536,108.3536,0,0,0,11.334,1.373q5.32.3472,10.39.1719a86.1061,86.1061,0,0,0,10.1319-.9443q5.0625-.7736,10.5615-1.9747a6.6212,6.6212,0,0,1,3.8633.086,3.516,3.516,0,0,1,1.9746,1.7168,3.3344,3.3344,0,0,1,0,2.5762,5.2916,5.2916,0,0,1-1.8887,2.49,56.5235,56.5235,0,0,1-10.99,6.6113,89.5842,89.5842,0,0,1-11.5918,4.3789A105.3575,105.3575,0,0,1,447.9583,316.9a65.3728,65.3728,0,0,1-8.5,1.1162A61.8876,61.8876,0,0,1,434.134,338.28a121.5188,121.5188,0,0,1-9.6162,17.6885,97.7129,97.7129,0,0,1-10.99,13.0508,51.6092,51.6092,0,0,1-13.91,9.9609,33.7474,33.7474,0,0,1-10.0468,2.6611,31.2444,31.2444,0,0,1-10.39-.5146,25.1,25.1,0,0,1-9.2725-4.208,19.445,19.445,0,0,1-6.5263-8.2422,29.9643,29.9643,0,0,1-2.5762-13.8242,62.0818,62.0818,0,0,1,2.49-14.5977,100.2841,100.2841,0,0,1,5.4092-14.2529q3.2607-6.9551,6.1826-12.794A372.1765,372.1765,0,0,1,394.4651,279.72q8.5839-12.706,15.3691-19.0615,6.7822-6.3516,11.9356-7.041A11.6935,11.6935,0,0,1,430.8713,256.0222Zm-27.3047,88.6123q9.7881-14.08,12.879-27.4766a22.7491,22.7491,0,0,1-5.58-3.0918,13.9334,13.9334,0,0,1-4.0362-4.9794,48.8077,48.8077,0,0,0-6.0107,7.47q-2.921,4.38-5.4951,9.0156-2.5767,4.6377-4.7217,9.0156-2.15,4.38-3.5215,7.2989a81.7543,81.7543,0,0,0-4.5508,12.5361q-1.1191,4.6362-.43,6.5254a2.1976,2.1976,0,0,0,2.8339,1.46,13.3922,13.3922,0,0,0,5.1524-2.747,52.5718,52.5718,0,0,0,6.5254-6.1826A83.769,83.769,0,0,0,403.5666,344.6345Z" fill="#e870a6"/><path d="M562.9309,296.0349a5.0741,5.0741,0,0,1,3.5205.1719,3.0988,3.0988,0,0,1,1.6309,1.8886,3.759,3.759,0,0,1-.3428,2.6622,5.8947,5.8947,0,0,1-2.4043,2.49,114.2166,114.2166,0,0,1-20.0068,9.96,80.552,80.552,0,0,1-20.35,4.9805,60.9561,60.9561,0,0,1-3.1768,14.3389,123.1235,123.1235,0,0,1-5.4092,13.1377,97.172,97.172,0,0,1-5.582,9.96,94.2556,94.2556,0,0,1-6.9551,9.5313,66.6189,66.6189,0,0,1-8.2422,8.3281,38.5316,38.5316,0,0,1-9.6172,6.0108,28.3039,28.3039,0,0,1-16.1425,2.3183,30.44,30.44,0,0,1-13.9961-6.0107,31.3145,31.3145,0,0,1-9.4444-12.1924,29.8329,29.8329,0,0,1-2.3183-16.0567,75.0512,75.0512,0,0,1,7.3838-25.1582,81.87,81.87,0,0,1,15.1123-21.5517,70.8482,70.8482,0,0,1,9.3593-8.1572,42.3333,42.3333,0,0,1,10.9043-5.753,21.3913,21.3913,0,0,1,4.1221-1.1162,35.21,35.21,0,0,1,4.8936-.5156,19.1161,19.1161,0,0,1,4.8086.43,13.0977,13.0977,0,0,1,4.208,1.7178,17.378,17.378,0,0,1,8.5859,3.1767,28.0431,28.0431,0,0,1,7.041,6.9551,84.9151,84.9151,0,0,0,21.7236,1.5449A135.703,135.703,0,0,0,562.9309,296.0349Zm-87.2383,33.4873a69.4527,69.4527,0,0,0-6.3535,13.5664,55.8407,55.8407,0,0,0-2.92,12.1924q-.5157,5.1519,1.2881,7.1269t6.6113-1.6308a71.3717,71.3717,0,0,0,7.4707-6.7842,73.9548,73.9548,0,0,0,6.4395-7.8135,88.1318,88.1318,0,0,0,6.0107-9.0156,80.5446,80.5446,0,0,0,4.8086-9.7021q.8569-2.4039,1.7168-5.0665a29.3912,29.3912,0,0,0,1.2021-5.7529,18.7274,18.7274,0,0,1-4.8945-2.49,18.5266,18.5266,0,0,1-4.3789-4.5508,57.2414,57.2414,0,0,0-9.4453,9.1875A87.0966,87.0966,0,0,0,475.6926,329.5222Z" fill="#e870a6"/><path d="M607.9241,306.1667a37.4171,37.4171,0,0,0-16.7432,1.7178,55.0989,55.0989,0,0,0-14.8545,7.8135,76.4841,76.4841,0,0,0-12.4512,11.5058,94.7767,94.7767,0,0,0-9.53,12.9659q-6.87,11.3334-6.6114,14.8545.2563,3.5214,4.7217,1.1162t11.5918-9.7891a135.7048,135.7048,0,0,0,14.168-17.6875q1.7139-2.4037,3.6924-4.9805a37.4621,37.4621,0,0,1,4.2929-4.7226,22.4855,22.4855,0,0,1,5.2373-3.6065,18.1754,18.1754,0,0,1,6.3545-1.8027,13.2792,13.2792,0,0,1,6.9551,1.03,9.7774,9.7774,0,0,1,4.293,3.8633,9.9939,9.9939,0,0,1,1.2021,5.9248,16.7548,16.7548,0,0,1-2.49,7.2128,50.537,50.537,0,0,1-2.7471,4.379q-1.72,2.4916-3.52,5.4091-1.8031,2.9225-3.4346,5.9248a45.7772,45.7772,0,0,0-2.6621,5.753q-1.3768,3.7792.6866,3.52,2.061-.2579,5.4961-3.1768a105.295,105.295,0,0,0,11.9345-11.7637q5.41-6.2666,10.39-11.5918a3.9151,3.9151,0,0,1,2.1465-1.2021,3.1927,3.1927,0,0,1,2.0605.3437,3.4286,3.4286,0,0,1,1.46,1.6319,4.1136,4.1136,0,0,1,.1718,2.6611,56.1735,56.1735,0,0,1-5.7529,13.9961,102.0586,102.0586,0,0,1-10.39,15.37,85.67,85.67,0,0,1-12.88,12.88q-6.87,5.4977-13.0508,6.3535a18.2365,18.2365,0,0,1-7.7285-.6006,15.7124,15.7124,0,0,1-6.1817-3.52,17.7322,17.7322,0,0,1-4.122-5.9248,18.7969,18.7969,0,0,1-1.5449-7.6425,35.8275,35.8275,0,0,1,.6005-6.5254,54.3333,54.3333,0,0,1,1.6319-6.5254q-2.9225,4.982-6.1826,10.8183a65.0493,65.0493,0,0,1-7.3838,10.6475,30.0819,30.0819,0,0,1-9.1875,7.3848,16.4923,16.4923,0,0,1-11.5918,1.03q-7.3814-1.7153-10.4756-6.6972a24.11,24.11,0,0,1-3.5205-11.2491,41.7381,41.7381,0,0,1,1.2021-12.8789,69.0345,69.0345,0,0,1,3.8643-11.5918,99.4425,99.4425,0,0,1,14.7685-23.7851,95.79,95.79,0,0,1,20.7793-18.6319,71.2314,71.2314,0,0,1,11.9346-6.44,54.689,54.689,0,0,1,13.4805-3.8633,39.9471,39.9471,0,0,1,13.5674.2569,27.56,27.56,0,0,1,12.3642,5.9248,7.33,7.33,0,0,1,2.6611,4.38,8.2466,8.2466,0,0,1-3.6054,8.414A7.2044,7.2044,0,0,1,607.9241,306.1667Z" fill="#e870a6"/><path d="M603.2864,354.5945q3.9536-5.4946,7.6426-10.8194,3.6942-5.32,7.1259-10.9043,3.438-5.578,6.6123-11.6777a133.3432,133.3432,0,0,0,5.9248-13.1367q-2.5766-3.0923-2.5761-8.5869a13.96,13.96,0,0,1,1.9746-7.0411,20.4307,20.4307,0,0,1,4.98-5.8388,19.9735,19.9735,0,0,1,6.6114-3.5205,14.76,14.76,0,0,1,7.2129-.4287,12.0932,12.0932,0,0,1,6.8691,3.9492,11.87,11.87,0,0,1,2.7471,6.5263,74.9924,74.9924,0,0,1,8.2431,3.1768,28.1111,28.1111,0,0,1,7.0411,4.5508,19.6236,19.6236,0,0,1,4.8085,6.4394,17.9841,17.9841,0,0,1,1.3741,8.8448,31.7223,31.7223,0,0,1-2.2324,9.53,68.0866,68.0866,0,0,1-4.6368,9.3594q-2.7495,4.6362-5.667,8.93-2.9223,4.2949-5.3242,8.415a46.6849,46.6849,0,0,0-2.833,5.5811,7.7762,7.7762,0,0,0-.8594,4.0361q.2579,1.3755,2.1475.8584,1.8867-.5156,6.3535-3.95a109.61,109.61,0,0,0,13.7383-12.5361q6.3516-6.8656,12.708-13.7383l2.4043-2.4043a5.5476,5.5476,0,0,1,2.7471-1.5449,2.9191,2.9191,0,0,1,2.6621.5146,3.5118,3.5118,0,0,1,1.1162,2.2325q.17,1.3768-1.2881,4.6367-1.46,3.2637-3.4346,6.8691-1.9759,3.6065-4.0351,6.7832-2.061,3.18-2.92,4.5508-3.0909,4.6377-7.126,9.961a65.9125,65.9125,0,0,1-9.0166,9.7021A38.9555,38.9555,0,0,1,663.65,380.697a20.7622,20.7622,0,0,1-12.1075,1.2022,16.6838,16.6838,0,0,1-11.3339-7.2979,23.4449,23.4449,0,0,1-3.9493-13.31,30.1677,30.1677,0,0,1,3.0049-12.45,137.5357,137.5357,0,0,1,6.5254-12.622q3.5185-6.0088,6.5264-10.8194,3.0014-4.8046,3.0049-7.3838,0-1.3725-2.2325-1.7177-2.2338-.3414-3.6064-.6866Q646.3908,320.08,642.87,324.8q-3.5216,4.7256-7.127,9.2735-3.6064,4.5513-7.2988,8.8437-3.6943,4.2949-6.9551,7.8994a75.207,75.207,0,0,1-11.1621,10.2178q-5.1519,3.6958-8.0713,4.208-2.9179.5142-3.0049-2.0615Q599.1663,360.6052,603.2864,354.5945Z" fill="#e870a6"/><path d="M785.8333,333.1286a16.1454,16.1454,0,0,0,1.46-1.7177,7.3441,7.3441,0,0,1,1.8027-1.7168,4.4106,4.4106,0,0,1,2.0606-.7735,3.14,3.14,0,0,1,2.2324.9453,3.0387,3.0387,0,0,1,1.1162,2.2325,7.1409,7.1409,0,0,1-.4287,2.833,24.9715,24.9715,0,0,1-1.2021,2.834q-.6885,1.3755-1.03,2.2324a113.6869,113.6869,0,0,1-12.794,21.6377,70.06,70.06,0,0,1-17.4306,16.8291,22.134,22.134,0,0,1-6.6113,2.834,14.9856,14.9856,0,0,1-7.2989.0859,12.5509,12.5509,0,0,1-7.6416-4.9805,19.3946,19.3946,0,0,1-3.3486-8.5869,28.24,28.24,0,0,1,.3428-9.7881,26.3245,26.3245,0,0,1,3.2636-8.5869q-2.2338,3.438-4.8945,7.5567-2.6646,4.12-5.7529,8.2431-3.0909,4.1206-6.4395,7.8135a32.9281,32.9281,0,0,1-7.1269,6.0107,20.6842,20.6842,0,0,1-7.8135,2.919,14.175,14.175,0,0,1-8.3291-1.46,19.8711,19.8711,0,0,1-9.4453-7.8994,24.9528,24.9528,0,0,1-3.3487-10.99,42.2154,42.2154,0,0,1,1.1163-12.6221,78.9583,78.9583,0,0,1,4.207-12.88,101.1482,101.1482,0,0,1,5.8389-11.6777q3.1756-5.41,5.9248-9.1875a112.3856,112.3856,0,0,1,12.45-14.3389,62.8309,62.8309,0,0,1,15.37-11.0771,37.19,37.19,0,0,1,6.8691-2.5752,34.8265,34.8265,0,0,1,7.6416-1.2022,24.0346,24.0346,0,0,1,7.5567.8584,15.2814,15.2814,0,0,1,6.4394,3.6065,8.2281,8.2281,0,0,1,2.2324,3.6064q1.03-2.7452,2.834-6.9551,1.8018-4.2069,4.293-8.8447,2.4873-4.6362,5.4951-9.2724a64.4165,64.4165,0,0,1,6.2686-8.2432,30.9542,30.9542,0,0,1,6.7832-5.7529,12.3953,12.3953,0,0,1,7.1259-1.9756,12.2508,12.2508,0,0,1,5.753,2.0615,11.3231,11.3231,0,0,1,3.7783,4.293,14.3184,14.3184,0,0,1,1.46,5.667,15.3738,15.3738,0,0,1-.8584,6.0107,37.7384,37.7384,0,0,1-3.6064,7.2979q-2.2339,3.5229-4.8086,6.955-2.5767,3.438-5.2383,6.9551-2.6631,3.5216-5.2373,7.127-6.5288,12.3647-13.2226,25.0722a198.1976,198.1976,0,0,0-11.1631,25.0723q-1.2027,3.438.5156,4.4648,1.7139,1.0313,5.8389-3.0908,2.5752-2.5752,7.041-6.9551Q780.3367,339.6545,785.8333,333.1286Zm-41.2149-24.9013A55.337,55.337,0,0,0,734.3147,316.9a119.2376,119.2376,0,0,0-9.7031,11.5918,102.5463,102.5463,0,0,0-7.8994,12.45,63.3616,63.3616,0,0,0-4.8946,11.42q-1.2025,3.9522.43,5.0655,1.63,1.1191,5.7529-1.8028a57.1147,57.1147,0,0,0,7.7276-6.2675q4.29-4.0342,8.7588-8.9307,4.4634-4.894,8.6718-9.874,4.2057-4.9791,7.6416-8.93,1.8882-4.4634,3.6924-8.93t3.8643-8.9307q-2.9225.3472-5.9248.8594Q749.4261,305.136,744.6184,308.2273Z" fill="#e870a6"/></g></svg>