<svg xmlns="http://www.w3.org/2000/svg" viewBox="0 0 856.2078 352.693"><g id="logo"><path d="M43.9543,80.0091q-.8174.8158-2.6045,3.01A39.4874,39.4874,0,0,0,38.095,87.657a11.6052,11.6052,0,0,0-1.7081,4.5562,2.8383,2.8383,0,0,0,2.0342,3.0918,10.9167,10.9167,0,0,0,5.125.4882A37.5411,37.5411,0,0,0,49.73,94.5725q3.1729-.892,6.0215-1.9526,2.8448-1.0562,4.4746-1.7085,4.0665-1.9527,8.2988-4.3936a62.5726,62.5726,0,0,0,7.9737-5.4511,59.4216,59.4216,0,0,0,6.834-6.4273,34.3892,34.3892,0,0,0,5.0439-7.16,15.7367,15.7367,0,0,0,1.791-5.5323,8.6079,8.6079,0,0,0-.6513-4.8,7.341,7.341,0,0,0-3.1729-3.2544,9.5555,9.5555,0,0,0-5.6143-.8951,39.6067,39.6067,0,0,0-10.17,2.6036,85.5181,85.5181,0,0,1-10.8213,3.4169,26.5059,26.5059,0,0,1-10.2519.57q-4.8809-.7324-8.461-6.1021a15.34,15.34,0,0,1-2.5224-11.7973,31.1033,31.1033,0,0,1,5.126-11.7163,56.5932,56.5932,0,0,1,9.1933-10.2515,87.2458,87.2458,0,0,1,9.52-7.4038,93.4888,93.4888,0,0,1,11.31-6.3462A66.099,66.099,0,0,1,86.8313,1.2517,43.4764,43.4764,0,0,1,100.2551.1126a22.2494,22.2494,0,0,1,12.042,4.5561,8.707,8.707,0,0,1,3.0107,3.9053,6.1766,6.1766,0,0,1,.0811,4.0679,7.4454,7.4454,0,0,1-2.44,3.4175,11.0731,11.0731,0,0,1-4.3946,2.1152,137.9231,137.9231,0,0,0-21.3164,6.8345A86.8522,86.8522,0,0,0,67.06,36.4q-5.37,4.2334-4.9629,6.1831.4042,1.9526,7.73-.8135a45.397,45.397,0,0,1,12.9365-2.7661,29.5613,29.5613,0,0,1,13.1,1.9526q7.1573,2.7685,10.5762,8.0547a25.2057,25.2057,0,0,1,3.9863,11.5532,34.084,34.084,0,0,1-1.3828,12.855,47.02,47.02,0,0,1-5.3691,11.96,59.02,59.02,0,0,1-12.042,13.5869,86.0264,86.0264,0,0,1-15.1328,10.0078,87.7912,87.7912,0,0,1-11.5537,5.0439A59.9646,59.9646,0,0,1,52.0891,117.11a46.3726,46.3726,0,0,1-12.8545-.1626,25.4259,25.4259,0,0,1-11.5537-4.8818q-6.3458-4.5534-7.4844-10.4956a20.0355,20.0355,0,0,1,1.1387-11.5532A26.0365,26.0365,0,0,1,28.74,80.0091a28.2837,28.2837,0,0,1,11.3086-6.02,3.7436,3.7436,0,0,1,2.4414.1625,3.9806,3.9806,0,0,1,1.7891,1.4644,3.8824,3.8824,0,0,1,.6513,2.1968A3.0366,3.0366,0,0,1,43.9543,80.0091Z" fill="#e870a6"/><path d="M257.2805,61.2962a6.8152,6.8152,0,0,1,3.2549,5.1255,10.3265,10.3265,0,0,1-.9756,5.7768,8.2593,8.2593,0,0,1-3.7432,3.8237q-2.4418,1.221-5.37-.5693l-12.3672-7.4853a153.238,153.238,0,0,1-15.7832,21.3979,110.6213,110.6213,0,0,1-17.4121,15.7026q-3.4159,2.4412-7.3222,4.8819a40.7621,40.7621,0,0,1-8.0547,3.9053,25.2492,25.2492,0,0,1-8.461,1.4643,16.0848,16.0848,0,0,1-8.3808-2.44q-7.3213-4.5543-9.2754-11.5532a37.3627,37.3627,0,0,1-.9756-14.8082q-2.93,4.3938-6.02,8.6246-3.0937,4.2333-6.3467,8.2988a52.7612,52.7612,0,0,1-6.5908,6.4272,28.7469,28.7469,0,0,1-7.8106,4.6377,18.4393,18.4393,0,0,1-8.5429,1.2207,15.2921,15.2921,0,0,1-8.461-3.8242,17.0769,17.0769,0,0,1-6.5088-9.6006,28.683,28.683,0,0,1-.3252-11.3906,49.2808,49.2808,0,0,1,3.4981-11.6348q2.5254-5.7737,4.9629-10.4951a194.1743,194.1743,0,0,1,13.9131-22.13A123.4253,123.4253,0,0,1,151.675,27.1243q3.7413-3.4167,7.8106-2.7661a12.1257,12.1257,0,0,1,6.834,3.417,11.4351,11.4351,0,0,1,3.2539,6.997,9.4172,9.4172,0,0,1-2.9287,7.8106q-4.7213,5.0457-9.3565,10.74Q152.6506,59.0209,148.42,65.12q-4.2334,6.1026-7.8116,12.3672a102.4177,102.4177,0,0,0-6.0195,12.2851q-2.4419,5.8587-.9766,6.1026t5.3692-3.0108a94.3953,94.3953,0,0,0,13.1806-13.18q5.858-7.1587,11.2276-14.32,6.3471-8.4587,10.4961-14.4008,4.1484-5.9378,6.916-10.2515,2.7656-4.31,4.7187-7.16a36.1991,36.1991,0,0,1,4.2305-5.1259,9.549,9.549,0,0,1,7.4854-3.1729,11.129,11.129,0,0,1,6.916,2.7661,11.9533,11.9533,0,0,1,3.7422,6.5088,10.0636,10.0636,0,0,1-1.8711,8.0547,126.0746,126.0746,0,0,0-7.0791,11.5537q-3.6593,6.6738-6.9961,13.6685-3.3369,6.9982-5.94,13.75a80.59,80.59,0,0,0-3.7422,12.123,15.01,15.01,0,0,0-.57,5.1255q.2447,1.7088,1.2207,1.9526a3.0911,3.0911,0,0,0,2.3594-.6508,25.4737,25.4737,0,0,0,3.1728-2.522,119.4967,119.4967,0,0,0,9.0313-9.438q4.7973-5.53,9.3564-11.7974,4.5543-6.2622,8.2989-12.6108a71.6681,71.6681,0,0,0,5.6953-11.7163,23.09,23.09,0,0,1-2.1152-11.96,19.671,19.671,0,0,1,3.498-9.519,14.4512,14.4512,0,0,1,7.2422-5.37,12.6793,12.6793,0,0,1,9.1113.4882,10.7535,10.7535,0,0,1,4.6387,3.8238,14.7627,14.7627,0,0,1,2.2773,5.8584,29.4037,29.4037,0,0,1,.2442,7.3222,53.0378,53.0378,0,0,1-1.3018,8.0547q2.9283,2.6052,5.8584,5.2071A68.3154,68.3154,0,0,0,257.2805,61.2962Z" fill="#e870a6"/><path d="M266.718,93.0271a13.9888,13.9888,0,0,0,8.8691,2.8477,31.7235,31.7235,0,0,0,10.3321-2.0342,60.201,60.201,0,0,0,10.8213-5.2886,118.4954,118.4954,0,0,0,10.333-7.0786q4.8808-3.7412,8.7871-7.4038t6.1836-6.2646a5.5318,5.5318,0,0,1,3.2539-2.1968,3.2338,3.2338,0,0,1,2.6855.6509,4.1835,4.1835,0,0,1,1.3008,2.7661,7.2163,7.2163,0,0,1-.7324,3.9868A88.7456,88.7456,0,0,1,305.2834,102.79a79.8667,79.8667,0,0,1-9.8447,6.59,56.1146,56.1146,0,0,1-10.9844,4.8,44.496,44.496,0,0,1-11.5527,2.0337,30.5134,30.5134,0,0,1-11.7158-1.8711,27.4255,27.4255,0,0,1-11.1465-6.8344,26.0648,26.0648,0,0,1-5.94-9.8448,33.17,33.17,0,0,1-1.5459-11.7158,55.7028,55.7028,0,0,1,1.9532-12.53,69.4227,69.4227,0,0,1,4.5556-12.1225,80.7082,80.7082,0,0,1,6.1026-10.5772,107.631,107.631,0,0,1,7.24-9.0307,64.9936,64.9936,0,0,1,8.7061-8.1363,54.7839,54.7839,0,0,1,10.0068-6.1836,34.6265,34.6265,0,0,1,11.1465-3.1728,24.94,24.94,0,0,1,13.2627,2.0337,21.282,21.282,0,0,1,10.0068,9.0312,21.8445,21.8445,0,0,1,3.1738,12.0415,30.3806,30.3806,0,0,1-2.93,11.8784,39.9015,39.9015,0,0,1-7.24,10.4957,43.29,43.29,0,0,1-9.6015,7.7294,37.61,37.61,0,0,1-16.5157,5.4512,46.6543,46.6543,0,0,1-16.5166-1.8711,23.11,23.11,0,0,0-1.3838,6.9971A5.8405,5.8405,0,0,0,266.718,93.0271Zm15.1328-26.3613a26.1046,26.1046,0,0,0,10.9024-7.9731,31.9243,31.9243,0,0,0,2.7675-3.9053,15.294,15.294,0,0,0,2.1153-5.0445q.8115-2.7655-.6514-3.3359a4.9706,4.9706,0,0,0-3.417.0816,15.3137,15.3137,0,0,0-5.289,2.8476q-2.524,2.0361-4.4747,3.8237a65.082,65.082,0,0,0-6.3457,6.9971,88.7063,88.7063,0,0,0-5.37,7.648A22.4438,22.4438,0,0,0,281.8508,66.6658Z" fill="#e870a6"/><path d="M343.0344,93.0271a13.9861,13.9861,0,0,0,8.8682,2.8477,31.7241,31.7241,0,0,0,10.333-2.0342,60.1608,60.1608,0,0,0,10.82-5.2886,118.6647,118.6647,0,0,0,10.334-7.0786q4.8809-3.7412,8.7861-7.4038,3.9068-3.6613,6.1836-6.2646a5.5368,5.5368,0,0,1,3.2549-2.1968,3.2328,3.2328,0,0,1,2.6846.6509,4.18,4.18,0,0,1,1.3017,2.7661,7.2341,7.2341,0,0,1-.7324,3.9868A88.7366,88.7366,0,0,1,381.5989,102.79a79.848,79.848,0,0,1-9.8438,6.59,56.1641,56.1641,0,0,1-10.9844,4.8,44.5107,44.5107,0,0,1-11.5527,2.0337,30.5187,30.5187,0,0,1-11.7168-1.8711,27.4261,27.4261,0,0,1-11.1465-6.8344,26.0887,26.0887,0,0,1-5.9394-9.8448,33.17,33.17,0,0,1-1.545-11.7158,55.7007,55.7007,0,0,1,1.9522-12.53,69.5757,69.5757,0,0,1,4.5557-12.1225,80.81,80.81,0,0,1,6.1025-10.5772,107.6675,107.6675,0,0,1,7.2412-9.0307,64.9857,64.9857,0,0,1,8.7051-8.1363,54.7577,54.7577,0,0,1,10.0078-6.1836,34.6122,34.6122,0,0,1,11.1465-3.1728,24.9366,24.9366,0,0,1,13.2617,2.0337,21.2843,21.2843,0,0,1,10.0078,9.0312,21.8426,21.8426,0,0,1,3.1729,12.0415A30.3986,30.3986,0,0,1,392.095,59.18a39.9054,39.9054,0,0,1-7.2413,10.4957,43.2631,43.2631,0,0,1-9.6005,7.7294,37.6139,37.6139,0,0,1-16.5157,5.4512A46.6592,46.6592,0,0,1,342.22,80.9856a23.1072,23.1072,0,0,0-1.3829,6.9971A5.8354,5.8354,0,0,0,343.0344,93.0271Zm15.1328-26.3613A26.1171,26.1171,0,0,0,369.07,58.6927a31.9469,31.9469,0,0,0,2.7666-3.9053,15.2534,15.2534,0,0,0,2.1152-5.0445q.813-2.7655-.6514-3.3359a4.9706,4.9706,0,0,0-3.417.0816,15.3007,15.3007,0,0,0-5.288,2.8476Q362.07,51.3723,360.12,53.16a64.9747,64.9747,0,0,0-6.3466,6.9971,88.8833,88.8833,0,0,0-5.37,7.648A22.45,22.45,0,0,0,358.1672,66.6658Z" fill="#e870a6"/><path d="M463.6106,30.2161a13.651,13.651,0,0,1-4.8008,5.126,24.7515,24.7515,0,0,1-6.59,2.8476,33.36,33.36,0,0,1-7.4043,1.1387q-3.8247.1641-7.2413,0-2.1152,3.5815-5.5322,9.8447-3.4175,6.2667-6.834,13.3433-3.4174,7.0788-6.4277,14.1567a72.9965,72.9965,0,0,0-4.1494,12.1231q-1.4649,5.21.081,6.7529,1.5439,1.5483,6.2657-1.5459a44.1455,44.1455,0,0,0,7.0781-5.6953q3.4965-3.4167,6.6719-7.0781,3.1728-3.6615,6.02-7.2412,2.8447-3.578,4.9629-6.3462a6.6455,6.6455,0,0,1,3.3359-2.7666,3.1636,3.1636,0,0,1,2.7656.2441,3.4556,3.4556,0,0,1,1.3018,2.5225A7.0654,7.0654,0,0,1,452.22,71.71q-2.6046,5.5343-5.2881,11.1465-2.6851,5.6141-5.6953,10.8213a72.8424,72.8424,0,0,1-6.6719,9.6816,42.5329,42.5329,0,0,1-8.2178,7.73,26.5413,26.5413,0,0,1-12.3672,4.7188,16.9644,16.9644,0,0,1-12.5293-3.417,16.684,16.684,0,0,1-6.2646-8.0547,30.08,30.08,0,0,1-1.708-10.17,51.7354,51.7354,0,0,1,1.1386-10.74A101.0714,101.0714,0,0,1,397.22,73.5q1.14-4.0657,2.7656-8.2173,1.626-4.15,3.6621-8.7061,2.0333-4.5534,4.5557-9.8447,2.5209-5.2858,5.7763-11.6343a26.1207,26.1207,0,0,1-4.3115-.9765,8.0643,8.0643,0,0,1-3.3359-1.9527,4.383,4.383,0,0,1-.8135-4.9629,13.5135,13.5135,0,0,1,4.0683-5.2885,24.0938,24.0938,0,0,1,7.0782-3.9869,17.3565,17.3565,0,0,1,8.2177-1.0576,77.1969,77.1969,0,0,1,4.9629-6.3462,42.7074,42.7074,0,0,1,5.7764-5.5327,18.6454,18.6454,0,0,1,5.94-3.0913,17.4913,17.4913,0,0,1,6.7529-.895,11.31,11.31,0,0,1,5.8574,2.1152,8.6042,8.6042,0,0,1,3.2549,5.94,11.69,11.69,0,0,1-1.0576,7.3222,37.9776,37.9776,0,0,1-3.9864,6.3462,26.6374,26.6374,0,0,0,3.7422,1.0577,18.26,18.26,0,0,0,3.7422.4072,3.7531,3.7531,0,0,1,3.7432,2.0337A4.3165,4.3165,0,0,1,463.6106,30.2161Z" fill="#e870a6"/><path d="M1.3137,209.2849a45.662,45.662,0,0,1,8.2168-16.68,67.1,67.1,0,0,1,13.9121-13.5059,71.735,71.735,0,0,1,17.168-9.1934,57.6463,57.6463,0,0,1,17.9805-3.7431,43.174,43.174,0,0,1,16.2724,2.6855,37.7551,37.7551,0,0,1,13.0176,8.2168,36.2433,36.2433,0,0,1,8.4619,12.6924,39.0472,39.0472,0,0,1,2.6035,16.1094A55.4138,55.4138,0,0,1,94.2278,225.72,91.5343,91.5343,0,0,1,83.57,243.8631a101.8279,101.8279,0,0,1-14.5645,15.6211,120.4369,120.4369,0,0,1-16.4346,12.123,80.7862,80.7862,0,0,1-8.1357,4.1494,65.3676,65.3676,0,0,1-9.6826,3.417,61.6637,61.6637,0,0,1-10.251,1.8711,28.4871,28.4871,0,0,1-9.6816-.65,19.9631,19.9631,0,0,1-8.1368-4.1494,18.0932,18.0932,0,0,1-5.3691-8.38,21.2087,21.2087,0,0,1-1.14-10.0889,41.9785,41.9785,0,0,1,2.6845-10.333,66.4234,66.4234,0,0,1,4.8819-9.8447q2.8461-4.7182,5.6142-8.4619,2.9283-3.9053,6.1836-7.8105,3.252-3.9054,6.752-7.5665a92.1071,92.1071,0,0,1,7.16-6.7529,43.9618,43.9618,0,0,1,7.2412-5.0449,7.942,7.942,0,0,1,4.3936-.9756,8.1176,8.1176,0,0,1,3.9863,1.3018,6.2651,6.2651,0,0,1,2.4414,3.0918,6,6,0,0,1-.082,4.23,24.1458,24.1458,0,0,1-3.66,6.9971q-2.5254,3.4175-4.4755,6.5088-5.0464,7.6509-10.6583,15.7031a126.7648,126.7648,0,0,0-9.8447,16.6787q-1.3036,2.7685-.65,3.8242a2.4794,2.4794,0,0,0,2.4405.9756,14.0723,14.0723,0,0,0,4.3115-1.0576q2.5224-.9756,4.8828-2.0342a41.6,41.6,0,0,0,4.1484-2.1152,17.5936,17.5936,0,0,1,2.2793-1.22,83.6988,83.6988,0,0,0,10.82-7.73,110.6018,110.6018,0,0,0,9.6817-9.1944,104.4072,104.4072,0,0,0,6.834-8.4609,60.2258,60.2258,0,0,0,6.1025-10.333,36.1641,36.1641,0,0,0,3.1729-11.0654,18.9016,18.9016,0,0,0-1.9522-10.8213,12.1664,12.1664,0,0,0-5.5322-5.8574,19.8563,19.8563,0,0,0-7.8106-2.0342,32.6816,32.6816,0,0,0-8.5429.65,57.1652,57.1652,0,0,0-7.8926,2.1972,71.0333,71.0333,0,0,0-17.4922,9.2754A55.4825,55.4825,0,0,0,13.3547,214.98a9.4291,9.4291,0,0,1-4.5566,3.9052,5.555,5.555,0,0,1-4.3936-.1631,6.4985,6.4985,0,0,1-3.0107-3.498A8.8265,8.8265,0,0,1,1.3137,209.2849Z" fill="#e870a6"/><path d="M173.7961,209.2849a35.44,35.44,0,0,0-15.8652,1.627,52.256,52.256,0,0,0-14.0762,7.4033,72.49,72.49,0,0,0-11.7969,10.9024,89.9039,89.9039,0,0,0-9.0312,12.2861q-6.51,10.7388-6.2647,14.0752t4.4756,1.0576q4.2276-2.2764,10.9825-9.2754a128.6372,128.6372,0,0,0,13.4257-16.76q1.6231-2.2778,3.4981-4.7187a35.6028,35.6028,0,0,1,4.0683-4.4756,21.2839,21.2839,0,0,1,4.9629-3.417,17.2321,17.2321,0,0,1,6.02-1.708,12.5915,12.5915,0,0,1,6.5909.9756,9.2706,9.2706,0,0,1,4.0673,3.6611,9.4742,9.4742,0,0,1,1.14,5.6143,15.88,15.88,0,0,1-2.3594,6.834,48.1688,48.1688,0,0,1-2.6035,4.1494q-1.6288,2.3613-3.3359,5.126-1.71,2.7686-3.2549,5.6142a43.3706,43.3706,0,0,0-2.5225,5.4512q-1.3037,3.5816.65,3.3359t5.208-3.0107a99.811,99.811,0,0,0,11.31-11.1465q5.124-5.9385,9.8437-10.9834a3.704,3.704,0,0,1,2.0342-1.14,3.0249,3.0249,0,0,1,1.9531.3261,3.2382,3.2382,0,0,1,1.3829,1.5459,3.9054,3.9054,0,0,1,.163,2.5215A53.2588,53.2588,0,0,1,189.011,248.42a96.7545,96.7545,0,0,1-9.8457,14.5635,81.16,81.16,0,0,1-12.2032,12.2041q-6.51,5.2089-12.3671,6.0205a17.2862,17.2862,0,0,1-7.3223-.5693,14.8791,14.8791,0,0,1-5.8584-3.336,16.7941,16.7941,0,0,1-3.9053-5.6142,17.8035,17.8035,0,0,1-1.4648-7.2413,33.8868,33.8868,0,0,1,.57-6.1826,51.5541,51.5541,0,0,1,1.5449-6.1836q-2.7686,4.7212-5.8574,10.251a61.6552,61.6552,0,0,1-6.9971,10.0889,28.4841,28.4841,0,0,1-8.706,6.9971,15.6229,15.6229,0,0,1-10.9834.9765q-6.9947-1.6245-9.9258-6.3467a22.8462,22.8462,0,0,1-3.336-10.6582,39.5393,39.5393,0,0,1,1.14-12.2041,65.3849,65.3849,0,0,1,3.66-10.9834,94.2388,94.2388,0,0,1,13.9941-22.5371A90.8138,90.8138,0,0,1,130.8371,200.01a67.4879,67.4879,0,0,1,11.31-6.1025,51.8321,51.8321,0,0,1,12.7735-3.6611,37.8729,37.8729,0,0,1,12.8554.2441,26.097,26.097,0,0,1,11.7158,5.6143,6.9409,6.9409,0,0,1,2.5215,4.1494,7.8141,7.8141,0,0,1-3.416,7.9736A6.8272,6.8272,0,0,1,173.7961,209.2849Z" fill="#e870a6"/><path d="M227.9817,219.699a26.0964,26.0964,0,0,0,3.0918-6.5908q.4891-2.1959-.5694-2.9287a3.9841,3.9841,0,0,0-3.1728-.2442,22.2962,22.2962,0,0,0-4.6387,1.709q-2.5239,1.22-5.043,2.6846a34.1241,34.1241,0,0,0-4.15,2.7666q-5.858,4.2335-7.6475,7.2412-1.7929,3.0117-.9766,4.3115a2.2451,2.2451,0,0,0,1.9522.8955q1.4647.0836,3.4179,0a29.0932,29.0932,0,0,0,3.8243-.4072,18.5449,18.5449,0,0,1,3.01-.3252,20.6681,20.6681,0,0,1,9.8448,1.3018,17.0329,17.0329,0,0,1,6.915,5.0439,17.7538,17.7538,0,0,1,3.499,7.73,24.5365,24.5365,0,0,1-.081,9.5195,30.3891,30.3891,0,0,0,5.9394-4.5566,73.8961,73.8961,0,0,0,5.2881-5.6953q2.4419-2.9283,4.3936-5.7764,1.9526-2.8448,3.4179-4.6377a7.3913,7.3913,0,0,1,3.4981-2.7656,2.7948,2.7948,0,0,1,2.6845.3252,3.6681,3.6681,0,0,1,1.14,2.6035,7.2589,7.2589,0,0,1-1.3027,4.2305,152.0769,152.0769,0,0,1-13.18,20.5849,79.6431,79.6431,0,0,1-16.5977,16.19,40.7418,40.7418,0,0,1-9.3574,4.8007,65.0251,65.0251,0,0,1-11.3906,3.0909,61.3373,61.3373,0,0,1-11.6338.9765,33.4235,33.4235,0,0,1-10.0889-1.5459,27.2467,27.2467,0,0,1-4.6377-2.1963,22.9766,22.9766,0,0,1-4.3115-3.2548,15.9957,15.9957,0,0,1-3.1738-4.2305,10.9847,10.9847,0,0,1-1.2207-5.126,10.4764,10.4764,0,0,1,1.9531-6.1836,12.5635,12.5635,0,0,1,4.8008-4.1494,12.1733,12.1733,0,0,1,6.0195-1.22,9.7892,9.7892,0,0,1,5.7773,2.2773,29.7685,29.7685,0,0,0,7.9727,5.0449,13.7738,13.7738,0,0,0,3.9873-2.3593,56.2984,56.2984,0,0,0,6.02-5.126,52.8119,52.8119,0,0,0,5.126-5.6953q2.1138-2.7657,1.3017-4.23a2.3829,2.3829,0,0,0-2.2773-.8955,10.1286,10.1286,0,0,0-2.6035.4072,33.3361,33.3361,0,0,1-8.1367.65,27.2162,27.2162,0,0,1-7.9737-1.4638,18.188,18.188,0,0,1-6.5908-3.9874,14.4875,14.4875,0,0,1-3.9863-7.2412,20.9226,20.9226,0,0,1-.4883-10.0068,31.2586,31.2586,0,0,1,3.58-9.5195,40.7066,40.7066,0,0,1,6.2656-8.2989,55.6177,55.6177,0,0,1,7.5664-6.5087,52.1776,52.1776,0,0,1,9.0313-4.7188,40.0561,40.0561,0,0,1,10.414-2.7666,25.0582,25.0582,0,0,1,10.251.8135,17.1735,17.1735,0,0,1,8.543,5.8584,14.6015,14.6015,0,0,1,3.3359,8.38,19.0825,19.0825,0,0,1-1.4639,8.5429,22.8294,22.8294,0,0,1-12.6113,12.2041q-3.2578.9771-4.7187-.8134Q226.3547,222.6292,227.9817,219.699Z" fill="#e870a6"/><path d="M285.9094,218.0711l-4.5566,8.1367q2.6015-3.4175,5.207-6.7529,2.6016-3.334,5.3691-6.5909,3.255-3.9052,7.7305-8.8681a59.5372,59.5372,0,0,1,9.6-8.624,30.0583,30.0583,0,0,1,10.8223-4.9629,16.3638,16.3638,0,0,1,11.5527,1.79,14.868,14.868,0,0,1,5.3692,4.5557,16.6822,16.6822,0,0,1,2.6855,6.1025,20.618,20.618,0,0,1,.3252,6.834,34.5519,34.5519,0,0,1-1.5459,6.916,83.9665,83.9665,0,0,1-9.5195,19.12q-5.9415,8.87-11.6348,17.4922-2.7685,4.2335-3.1719,6.3467-.4086,2.1167.7315,2.5215,1.1367.4086,3.58-.8135a25.5905,25.5905,0,0,0,5.37-3.8242,63.0291,63.0291,0,0,0,6.1015-5.9395q2.8448-3.1728,5.7774-6.1015,3.2518-3.4176,6.5078-6.9161,3.2549-3.4965,6.51-7.2412a5.8231,5.8231,0,0,1,2.9287-1.9521,3.0566,3.0566,0,0,1,2.44.3252,3.2127,3.2127,0,0,1,1.3027,2.0342,4.4149,4.4149,0,0,1-.4882,3.0107q-1.3053,2.44-3.58,5.8574-2.2808,3.4175-4.8008,6.916-2.5254,3.501-5.044,6.753-2.5239,3.2563-4.1494,5.37-2.93,3.9053-6.59,8.38a45.0752,45.0752,0,0,1-8.0547,7.7295,28.3346,28.3346,0,0,1-9.4385,4.6377,16.0511,16.0511,0,0,1-10.5771-.8955,16.898,16.898,0,0,1-7.2412-5.2881,18.8138,18.8138,0,0,1-3.417-7.4043,23.6032,23.6032,0,0,1-.2442-8.543,43.5944,43.5944,0,0,1,2.1153-8.543,64.6739,64.6739,0,0,1,5.1259-10.4951q3.0088-4.9614,6.2647-9.6006,3.2534-4.6377,6.6719-9.1123a101.1659,101.1659,0,0,0,6.3457-9.3564q1.79-2.93,1.2207-3.6621-.5713-.731-2.7657.3261A37.8313,37.8313,0,0,0,311.05,211.4q-3.5009,2.6045-7.8925,6.5088a88.8069,88.8069,0,0,0-9.2754,9.3564q-4.2335,4.9659-8.461,10.17-3.4175,4.2334-6.7539,8.38-3.3369,4.15-6.1836,8.4619a69.9119,69.9119,0,0,0-5.0429,9.0313,41.0991,41.0991,0,0,0-3.1739,10.2519,8.4292,8.4292,0,0,1-2.2783,4.7188,9.2931,9.2931,0,0,1-4.0674,2.44,10.3194,10.3194,0,0,1-4.6386.2441,9.7379,9.7379,0,0,1-4.1485-1.7089,9.6113,9.6113,0,0,1-3.7431-5.5323,23.2616,23.2616,0,0,1-.6514-7.8916,55.2593,55.2593,0,0,1,1.4648-8.95,91.1348,91.1348,0,0,1,2.6856-8.9492q1.5483-4.3095,3.0918-7.9736,1.5468-3.6621,2.5215-5.7764,5.042-11.5532,11.0654-22.5371,6.019-10.9848,12.8545-21.3984,1.4648-2.2764,3.9062-6.02,2.4405-3.7413,5.4512-7.73,3.0088-3.986,6.5088-7.8106a39.5026,39.5026,0,0,1,7.1592-6.2646,18.3723,18.3723,0,0,1,7.5664-3.01,10.3016,10.3016,0,0,1,7.4863,1.8706,9.9235,9.9235,0,0,1,4.5557,6.5909,13.5329,13.5329,0,0,1-.9756,8.2177,45.4134,45.4134,0,0,1-4.6387,8.0547,92.5086,92.5086,0,0,1-6.7519,8.2988q-3.9054,4.3125-8.8692,9.3565-4.9657,5.045-10.9834,11.0644Z" fill="#e870a6"/><path d="M408.2737,161.7693a11.5021,11.5021,0,0,1,4.6377,7.4043,20.1808,20.1808,0,0,1-.7325,8.543,34.75,34.75,0,0,1-3.8242,8.4609q-2.5239,4.0693-4.6367,6.835a20.5142,20.5142,0,0,1,4.7188,3.6611,33.6382,33.6382,0,0,1,3.7421,4.6377,102.8231,102.8231,0,0,0,10.74,1.3018q5.04.328,9.8447.163a81.8465,81.8465,0,0,0,9.6006-.8955q4.7973-.7323,10.0068-1.8711a6.2853,6.2853,0,0,1,3.6612.0811,3.34,3.34,0,0,1,1.872,1.627,3.1645,3.1645,0,0,1,0,2.4414,5.0263,5.0263,0,0,1-1.79,2.3593,53.5452,53.5452,0,0,1-10.4151,6.2647,84.7769,84.7769,0,0,1-10.9833,4.1494,99.7,99.7,0,0,1-10.251,2.5225,61.8535,61.8535,0,0,1-8.0557,1.0576,58.6147,58.6147,0,0,1-5.0439,19.2011,115.1957,115.1957,0,0,1-9.1123,16.7608,92.6135,92.6135,0,0,1-10.4141,12.3662,48.893,48.893,0,0,1-13.1807,9.4385,31.9375,31.9375,0,0,1-9.5195,2.5215,29.6423,29.6423,0,0,1-9.8447-.4873,23.8137,23.8137,0,0,1-8.7871-3.9873,18.43,18.43,0,0,1-6.1836-7.8106,28.3938,28.3938,0,0,1-2.4405-13.0986,58.8443,58.8443,0,0,1,2.3594-13.8321,95.1463,95.1463,0,0,1,5.126-13.5058q3.0894-6.59,5.8574-12.1231a352.8433,352.8433,0,0,1,18.5508-31.73q8.1357-12.04,14.5635-18.0625,6.4263-6.0177,11.31-6.6714A11.0825,11.0825,0,0,1,408.2737,161.7693Zm-25.8721,83.9649q9.2739-13.34,12.2031-26.0352a21.5784,21.5784,0,0,1-5.2881-2.93,13.2155,13.2155,0,0,1-3.8242-4.7187,46.2478,46.2478,0,0,0-5.6943,7.0791q-2.77,4.1484-5.208,8.5429-2.4405,4.3931-4.4746,8.542-2.0376,4.15-3.336,6.916A77.2254,77.2254,0,0,0,362.468,255.01q-1.06,4.3932-.4072,6.1836a2.0818,2.0818,0,0,0,2.6845,1.3829,12.6758,12.6758,0,0,0,4.8819-2.6036,49.81,49.81,0,0,0,6.1836-5.8574A79.6587,79.6587,0,0,0,382.4016,245.7342Z" fill="#e870a6"/><path d="M533.4065,199.6844a4.8086,4.8086,0,0,1,3.3359.1621,2.9375,2.9375,0,0,1,1.5459,1.79,3.5684,3.5684,0,0,1-.3252,2.5225,5.5785,5.5785,0,0,1-2.2783,2.3593,108.2,108.2,0,0,1-18.957,9.4375,76.31,76.31,0,0,1-19.2823,4.72,57.7956,57.7956,0,0,1-3.0107,13.5869,116.5,116.5,0,0,1-5.126,12.4482,91.8609,91.8609,0,0,1-5.2881,9.4375A89.49,89.49,0,0,1,477.43,265.18a63.0592,63.0592,0,0,1-7.81,7.8925,36.5671,36.5671,0,0,1-9.1123,5.6954,26.8262,26.8262,0,0,1-15.2959,2.1962,28.8419,28.8419,0,0,1-13.2618-5.6953,29.6828,29.6828,0,0,1-8.95-11.5527,28.2708,28.2708,0,0,1-2.1963-15.2148,71.1311,71.1311,0,0,1,6.997-23.8389A77.5911,77.5911,0,0,1,442.1194,204.24a67.1839,67.1839,0,0,1,8.8681-7.73,40.154,40.154,0,0,1,10.333-5.4511,20.31,20.31,0,0,1,3.9053-1.0577,33.3763,33.3763,0,0,1,4.6377-.4882,18.1449,18.1449,0,0,1,4.5567.4072,12.4009,12.4009,0,0,1,3.9863,1.6269,16.4758,16.4758,0,0,1,8.1357,3.0108,26.5691,26.5691,0,0,1,6.6719,6.59,80.4871,80.4871,0,0,0,20.585,1.4649A128.648,128.648,0,0,0,533.4065,199.6844Zm-82.6631,31.73a65.8849,65.8849,0,0,0-6.0205,12.8555,52.928,52.928,0,0,0-2.7656,11.5527q-.4893,4.8824,1.22,6.753t6.2646-1.5459a67.6027,67.6027,0,0,0,7.0791-6.4278,70.0393,70.0393,0,0,0,6.1016-7.4033,83.6023,83.6023,0,0,0,5.6953-8.543,76.17,76.17,0,0,0,4.5567-9.1943q.8115-2.2764,1.6269-4.8a27.7742,27.7742,0,0,0,1.1387-5.4512,17.7493,17.7493,0,0,1-4.6367-2.3594,17.5479,17.5479,0,0,1-4.1495-4.3125,54.2548,54.2548,0,0,0-8.95,8.7061A82.4181,82.4181,0,0,0,450.7434,231.4148Z" fill="#e870a6"/><path d="M576.04,209.2849a35.4446,35.4446,0,0,0-15.8662,1.627,52.2636,52.2636,0,0,0-14.0752,7.4033,72.4814,72.4814,0,0,0-11.7969,10.9024,89.8212,89.8212,0,0,0-9.0313,12.2861q-6.5112,10.7388-6.2646,14.0752.2432,3.3369,4.4746,1.0576,4.229-2.2764,10.9834-9.2754a128.627,128.627,0,0,0,13.4248-16.76q1.6245-2.2778,3.498-4.7187a35.6035,35.6035,0,0,1,4.0684-4.4756,21.2839,21.2839,0,0,1,4.9629-3.417,17.2307,17.2307,0,0,1,6.0215-1.708,12.5856,12.5856,0,0,1,6.59.9756,9.2681,9.2681,0,0,1,4.0684,3.6611,9.4748,9.4748,0,0,1,1.1387,5.6143,15.88,15.88,0,0,1-2.3594,6.834,47.947,47.947,0,0,1-2.6035,4.1494q-1.629,2.3613-3.336,5.126-1.7079,2.7686-3.2549,5.6142a43.3559,43.3559,0,0,0-2.5214,5.4512q-1.3053,3.5816.65,3.3359,1.9526-.2446,5.207-3.0107a99.6456,99.6456,0,0,0,11.31-11.1465q5.1254-5.9385,9.8447-10.9834a3.6971,3.6971,0,0,1,2.0342-1.14,3.022,3.022,0,0,1,1.9521.3261,3.2453,3.2453,0,0,1,1.3838,1.5459,3.9,3.9,0,0,1,.1621,2.5215,53.2213,53.2213,0,0,1-5.4512,13.2627,96.74,96.74,0,0,1-9.8447,14.5635,81.16,81.16,0,0,1-12.2041,12.2041q-6.51,5.2089-12.3672,6.0205a17.2871,17.2871,0,0,1-7.3222-.5693,14.8686,14.8686,0,0,1-5.8575-3.336,16.7652,16.7652,0,0,1-3.9052-5.6142,17.8019,17.8019,0,0,1-1.4649-7.2413,33.9652,33.9652,0,0,1,.5694-6.1826,51.56,51.56,0,0,1,1.5459-6.1836q-2.7687,4.7212-5.8584,10.251a61.5952,61.5952,0,0,1-6.9961,10.0889,28.5081,28.5081,0,0,1-8.7061,6.9971,15.6234,15.6234,0,0,1-10.9834.9765q-6.9946-1.6245-9.9268-6.3467a22.8473,22.8473,0,0,1-3.3359-10.6582,39.5393,39.5393,0,0,1,1.14-12.2041,65.4817,65.4817,0,0,1,3.6611-10.9834,94.2452,94.2452,0,0,1,13.9941-22.5371,90.7934,90.7934,0,0,1,19.69-17.6553A67.4694,67.4694,0,0,1,544.39,193.907a51.84,51.84,0,0,1,12.7744-3.6611,37.8676,37.8676,0,0,1,12.8545.2441,26.0881,26.0881,0,0,1,11.7158,5.6143,6.9378,6.9378,0,0,1,2.5225,4.1494,7.8171,7.8171,0,0,1-3.417,7.9736A6.8247,6.8247,0,0,1,576.04,209.2849Z" fill="#e870a6"/><path d="M571.6457,255.1726q3.7456-5.2061,7.2412-10.2519,3.501-5.0419,6.753-10.333,3.2578-5.2853,6.2646-11.0645a126.0565,126.0565,0,0,0,5.6143-12.4482q-2.4405-2.93-2.44-8.1367a13.2205,13.2205,0,0,1,1.871-6.6719,19.3852,19.3852,0,0,1,4.7188-5.5322,18.9319,18.9319,0,0,1,6.2646-3.336,13.9844,13.9844,0,0,1,6.835-.4062,11.4569,11.4569,0,0,1,6.5088,3.7422,11.247,11.247,0,0,1,2.6035,6.1836,71.0346,71.0346,0,0,1,7.8106,3.0107,26.6654,26.6654,0,0,1,6.6718,4.3115,18.5974,18.5974,0,0,1,4.5557,6.1026,17.0279,17.0279,0,0,1,1.3018,8.38,30.0292,30.0292,0,0,1-2.1153,9.0313,64.3952,64.3952,0,0,1-4.3935,8.8682q-2.6046,4.393-5.37,8.4619-2.7687,4.0693-5.044,7.9726a44.3243,44.3243,0,0,0-2.6855,5.2891,7.3709,7.3709,0,0,0-.8135,3.8242q.2446,1.3037,2.0342.8135t6.02-3.7432a103.8164,103.8164,0,0,0,13.0185-11.8789q6.0176-6.5053,12.041-13.0176l2.2784-2.2783a5.2674,5.2674,0,0,1,2.6035-1.4639,2.766,2.766,0,0,1,2.5224.4883,3.3287,3.3287,0,0,1,1.0577,2.1153q.16,1.3037-1.2207,4.3935-1.3844,3.0923-3.2549,6.5088-1.8721,3.4175-3.8233,6.4277-1.9525,3.0132-2.7666,4.3116-2.93,4.3944-6.7529,9.4384a62.4181,62.4181,0,0,1-8.543,9.1934,36.9213,36.9213,0,0,1-10.17,6.4277,19.6783,19.6783,0,0,1-11.4717,1.1387,15.8043,15.8043,0,0,1-10.74-6.915,22.2105,22.2105,0,0,1-3.7422-12.6114,28.5876,28.5876,0,0,1,2.8477-11.7968,130.0227,130.0227,0,0,1,6.1836-11.961q3.3324-5.6939,6.1826-10.251,2.8461-4.5541,2.8476-6.997,0-1.3008-2.1152-1.627t-3.417-.6513q-2.93,4.2333-6.2646,8.706-3.337,4.4766-6.753,8.7871-3.4175,4.3125-6.916,8.38-3.501,4.0693-6.59,7.4854a71.3219,71.3219,0,0,1-10.5772,9.6816q-4.8823,3.501-7.6484,3.9863-2.7642.4893-2.8477-1.9521Q567.7425,260.8679,571.6457,255.1726Z" fill="#e870a6"/><path d="M744.6174,234.8318a15.249,15.249,0,0,0,1.3838-1.6269,6.95,6.95,0,0,1,1.708-1.627,4.1662,4.1662,0,0,1,1.9531-.7324,2.9753,2.9753,0,0,1,2.1153.8945,2.8843,2.8843,0,0,1,1.0576,2.1153,6.7479,6.7479,0,0,1-.4072,2.6855,23.5294,23.5294,0,0,1-1.1387,2.6846q-.6519,1.3037-.9766,2.1152a107.6535,107.6535,0,0,1-12.122,20.5029,66.405,66.405,0,0,1-16.5166,15.9473,20.99,20.99,0,0,1-6.2647,2.6846,14.1793,14.1793,0,0,1-6.916.081,11.8865,11.8865,0,0,1-7.2412-4.7187,18.3808,18.3808,0,0,1-3.1729-8.1358,26.7767,26.7767,0,0,1,.3252-9.2754,24.9446,24.9446,0,0,1,3.0918-8.1357q-2.1167,3.2564-4.6377,7.1592-2.5239,3.9052-5.4511,7.81-2.9283,3.9068-6.1016,7.4043a31.1873,31.1873,0,0,1-6.7529,5.6953,19.5951,19.5951,0,0,1-7.4043,2.7666,13.4282,13.4282,0,0,1-7.8916-1.3838,18.824,18.824,0,0,1-8.95-7.4853,23.6259,23.6259,0,0,1-3.1729-10.4141,39.9838,39.9838,0,0,1,1.0576-11.96A74.8188,74.8188,0,0,1,656.178,237.68a95.8151,95.8151,0,0,1,5.5332-11.0655q3.0087-5.1255,5.6132-8.705a106.5214,106.5214,0,0,1,11.7979-13.5879,59.5392,59.5392,0,0,1,14.5635-10.4951,35.19,35.19,0,0,1,6.5088-2.44,33.0276,33.0276,0,0,1,7.2412-1.14,22.7976,22.7976,0,0,1,7.16.8135,14.4816,14.4816,0,0,1,6.1016,3.4179,7.7879,7.7879,0,0,1,2.1152,3.417q.9771-2.6016,2.6856-6.5908,1.7079-3.9845,4.0674-8.38,2.3568-4.393,5.207-8.7871a61.2557,61.2557,0,0,1,5.9394-7.8105,29.3636,29.3636,0,0,1,6.4278-5.4512,11.75,11.75,0,0,1,6.7529-1.8716,11.6107,11.6107,0,0,1,5.4512,1.9526,10.7406,10.7406,0,0,1,3.58,4.0684,13.57,13.57,0,0,1,1.3828,5.37,14.537,14.537,0,0,1-.8135,5.6953,35.7435,35.7435,0,0,1-3.417,6.9151q-2.1167,3.3369-4.5566,6.5908-2.4405,3.2564-4.9629,6.59-2.5239,3.3369-4.9629,6.753-6.186,11.7157-12.5293,23.7578a187.8225,187.8225,0,0,0-10.5772,23.7568q-1.14,3.2578.4883,4.2315,1.6245.9754,5.5322-2.93,2.442-2.4405,6.6719-6.59T744.6174,234.8318Zm-39.0527-23.5947a52.4437,52.4437,0,0,0-9.7637,8.2178,113.0461,113.0461,0,0,0-9.1933,10.9834,97.0354,97.0354,0,0,0-7.4854,11.7978,60.0015,60.0015,0,0,0-4.6377,10.82q-1.1411,3.7457.4063,4.8008,1.5453,1.0605,5.4511-1.709a54.0578,54.0578,0,0,0,7.3233-5.9394q4.0648-3.82,8.2988-8.461,4.229-4.6377,8.2168-9.3564,3.9858-4.7182,7.2412-8.4619,1.7886-4.2291,3.499-8.4619,1.708-4.2291,3.6612-8.461-2.7686.3282-5.6143.8135A21.78,21.78,0,0,0,705.5647,211.2371Z" fill="#e870a6"/><path d="M677.094,162.3423,647.2064,90.2331a11.0142,11.0142,0,1,1,20.35-8.4345,11.4,11.4,0,0,1,.77,2.98Z" fill="#e870a6"/><path d="M652.4515,166.1882l-59.6014-41.78a11.0307,11.0307,0,1,1,12.6633-18.0651,11.364,11.364,0,0,1,2.3919,2.2816Z" fill="#e870a6"/><path d="M768.0215,266.0527l77.8911,5.0976a11.0142,11.0142,0,0,1-1.4387,21.9814,11.4025,11.4025,0,0,1-3.013-.6281Z" fill="#e870a6"/><path d="M765.3429,290.8492l59.6014,41.78a11.0306,11.0306,0,1,1-12.6632,18.065,11.3645,11.3645,0,0,1-2.392-2.2816Z" fill="#e870a6"/></g></svg>