<svg xmlns="http://www.w3.org/2000/svg" viewBox="0 0 1000 1000"><g id="backgroun"><rect width="1000" height="1000" fill="#fff"/></g><g id="logo"><path d="M122.2676,421.2856q-.8173.816-2.6045,3.01a39.4833,39.4833,0,0,0-3.2549,4.6377A11.6039,11.6039,0,0,0,114.7,433.49a2.8381,2.8381,0,0,0,2.0342,3.0918,10.9154,10.9154,0,0,0,5.125.4883,37.5452,37.5452,0,0,0,6.1836-1.2207q3.1728-.8921,6.0215-1.9526,2.8446-1.0561,4.4746-1.7085,4.0664-1.9527,8.2988-4.3936a62.5715,62.5715,0,0,0,7.9736-5.4511,59.4139,59.4139,0,0,0,6.834-6.4273,34.3861,34.3861,0,0,0,5.044-7.16,15.7415,15.7415,0,0,0,1.791-5.5323,8.6075,8.6075,0,0,0-.6514-4.8,7.3417,7.3417,0,0,0-3.1728-3.2544,9.5566,9.5566,0,0,0-5.6143-.895,39.6094,39.6094,0,0,0-10.17,2.6035,85.5077,85.5077,0,0,1-10.8213,3.417,26.5065,26.5065,0,0,1-10.252.57q-4.8809-.7325-8.4609-6.1021a15.34,15.34,0,0,1-2.5225-11.7974,31.1063,31.1063,0,0,1,5.126-11.7163,56.5965,56.5965,0,0,1,9.1934-10.2514,87.2457,87.2457,0,0,1,9.5195-7.4038,93.4906,93.4906,0,0,1,11.31-6.3462,66.0959,66.0959,0,0,1,13.1806-4.7188,43.4767,43.4767,0,0,1,13.4239-1.1391,22.25,22.25,0,0,1,12.042,4.5561,8.7079,8.7079,0,0,1,3.0107,3.9053,6.1759,6.1759,0,0,1,.081,4.0679,7.4439,7.4439,0,0,1-2.44,3.4174,11.0727,11.0727,0,0,1-4.3945,2.1153,137.9261,137.9261,0,0,0-21.3164,6.8344,86.8568,86.8568,0,0,0-20.1778,11.3907q-5.37,4.2333-4.9628,6.1831.4042,1.9525,7.7294-.8135a45.3977,45.3977,0,0,1,12.9366-2.7661,29.5615,29.5615,0,0,1,13.1,1.9526q7.1573,2.7686,10.5762,8.0547a25.2069,25.2069,0,0,1,3.9863,11.5532,34.086,34.086,0,0,1-1.3828,12.855,47.0165,47.0165,0,0,1-5.3692,11.9605,59.0179,59.0179,0,0,1-12.042,13.5869,86.0227,86.0227,0,0,1-15.1328,10.0078,87.78,87.78,0,0,1-11.5537,5.0439,59.9705,59.9705,0,0,1-12.8555,3.0918,46.3718,46.3718,0,0,1-12.8544-.1626,25.4258,25.4258,0,0,1-11.5538-4.8818q-6.3456-4.5534-7.4843-10.4956a20.0346,20.0346,0,0,1,1.1386-11.5532,26.0378,26.0378,0,0,1,7.4043-10.0074,28.2862,28.2862,0,0,1,11.3086-6.02,3.7442,3.7442,0,0,1,2.4414.1626,3.9806,3.9806,0,0,1,1.7891,1.4644,3.8825,3.8825,0,0,1,.6514,2.1968A3.0364,3.0364,0,0,1,122.2676,421.2856Z" fill="#e870a6"/><path d="M335.5938,402.5728a6.8148,6.8148,0,0,1,3.2548,5.1254,10.3249,10.3249,0,0,1-.9756,5.7769,8.26,8.26,0,0,1-3.7431,3.8237q-2.4419,1.221-5.37-.5693l-12.3672-7.4854a153.2414,153.2414,0,0,1-15.7832,21.398,110.6213,110.6213,0,0,1-17.4121,15.7026q-3.4161,2.4412-7.3223,4.8819a40.7534,40.7534,0,0,1-8.0547,3.9052,25.2463,25.2463,0,0,1-8.4609,1.4644,16.0851,16.0851,0,0,1-8.3809-2.44q-7.3212-4.5543-9.2754-11.5533a37.3639,37.3639,0,0,1-.9756-14.8081q-2.93,4.3938-6.02,8.6245-3.0937,4.2334-6.3466,8.2989a52.769,52.769,0,0,1-6.5909,6.4272,28.7464,28.7464,0,0,1-7.81,4.6377,18.441,18.441,0,0,1-8.543,1.2207,15.2919,15.2919,0,0,1-8.4609-3.8242,17.0764,17.0764,0,0,1-6.5088-9.6006,28.6794,28.6794,0,0,1-.3252-11.3906,49.2852,49.2852,0,0,1,3.498-11.6348q2.5254-5.7737,4.9629-10.4951a194.1882,194.1882,0,0,1,13.9131-22.13,123.4214,123.4214,0,0,1,17.4932-19.5268q3.7412-3.4168,7.81-2.7661a12.1247,12.1247,0,0,1,6.834,3.417,11.4343,11.4343,0,0,1,3.2539,6.997,9.4169,9.4169,0,0,1-2.9287,7.8106q-4.7213,5.0455-9.3564,10.74-4.6377,5.6982-8.8682,11.7974-4.2334,6.1025-7.8115,12.3672a102.4189,102.4189,0,0,0-6.02,12.2851q-2.4418,5.8587-.9765,6.1026t5.3691-3.0108a94.3913,94.3913,0,0,0,13.1807-13.18q5.858-7.1586,11.2275-14.32,6.3472-8.4586,10.4961-14.4009,4.1484-5.9376,6.916-10.2514,2.7657-4.31,4.7188-7.16a36.1808,36.1808,0,0,1,4.2305-5.126A9.5491,9.5491,0,0,1,275.55,366.53a11.1288,11.1288,0,0,1,6.916,2.7661,11.9529,11.9529,0,0,1,3.7422,6.5088,10.0632,10.0632,0,0,1-1.8711,8.0547,126.0967,126.0967,0,0,0-7.0791,11.5537q-3.6591,6.6738-6.9961,13.6684-3.3369,6.9984-5.9394,13.75a80.5717,80.5717,0,0,0-3.7422,12.1231,15.01,15.01,0,0,0-.57,5.1255q.2447,1.7086,1.2207,1.9526a3.09,3.09,0,0,0,2.3593-.6509,25.455,25.455,0,0,0,3.1729-2.5219,119.5317,119.5317,0,0,0,9.0312-9.438q4.7975-5.53,9.3565-11.7974,4.5542-6.2622,8.2988-12.6108a71.6557,71.6557,0,0,0,5.6953-11.7163,23.0909,23.0909,0,0,1-2.1152-11.96,19.671,19.671,0,0,1,3.498-9.519,14.452,14.452,0,0,1,7.2422-5.37,12.68,12.68,0,0,1,9.1114.4883A10.7526,10.7526,0,0,1,321.52,370.76a14.7643,14.7643,0,0,1,2.2774,5.8584,29.4039,29.4039,0,0,1,.2441,7.3222,53.0375,53.0375,0,0,1-1.3017,8.0547q2.9281,2.6052,5.8584,5.207A68.29,68.29,0,0,0,335.5938,402.5728Z" fill="#e870a6"/><path d="M345.0313,434.3037a13.9892,13.9892,0,0,0,8.8691,2.8477,31.7261,31.7261,0,0,0,10.332-2.0342,60.1978,60.1978,0,0,0,10.8213-5.2886,118.5175,118.5175,0,0,0,10.333-7.0786q4.8809-3.7412,8.7871-7.4038t6.1836-6.2647a5.5326,5.5326,0,0,1,3.2539-2.1967,3.2344,3.2344,0,0,1,2.6856.6508,4.1849,4.1849,0,0,1,1.3008,2.7662,7.2173,7.2173,0,0,1-.7325,3.9868,88.7476,88.7476,0,0,1-23.2685,29.7783,79.8667,79.8667,0,0,1-9.8447,6.59,56.1205,56.1205,0,0,1-10.9844,4.8,44.5017,44.5017,0,0,1-11.5528,2.0337A30.5137,30.5137,0,0,1,339.499,455.62a27.4263,27.4263,0,0,1-11.1465-6.8345,26.0621,26.0621,0,0,1-5.9394-9.8447,33.1685,33.1685,0,0,1-1.5459-11.7158,55.7017,55.7017,0,0,1,1.9531-12.53,69.4311,69.4311,0,0,1,4.5557-12.1225,80.6968,80.6968,0,0,1,6.1025-10.5772,107.67,107.67,0,0,1,7.24-9.0308,64.9985,64.9985,0,0,1,8.706-8.1362,54.7872,54.7872,0,0,1,10.0068-6.1836,34.624,34.624,0,0,1,11.1465-3.1728,24.94,24.94,0,0,1,13.2627,2.0337,21.2827,21.2827,0,0,1,10.0069,9.0312,21.8445,21.8445,0,0,1,3.1738,12.0415,30.3829,30.3829,0,0,1-2.93,11.8784,39.9013,39.9013,0,0,1-7.24,10.4956,43.2908,43.2908,0,0,1-9.6016,7.7295,37.61,37.61,0,0,1-16.5156,5.4512,46.6563,46.6563,0,0,1-16.5166-1.8711,23.11,23.11,0,0,0-1.3838,6.9971A5.84,5.84,0,0,0,345.0313,434.3037Zm15.1328-26.3613a26.1043,26.1043,0,0,0,10.9023-7.9732,31.9235,31.9235,0,0,0,2.7676-3.9052,15.2958,15.2958,0,0,0,2.1152-5.0445q.8115-2.7656-.6513-3.3359a4.9711,4.9711,0,0,0-3.417.0815,15.316,15.316,0,0,0-5.2891,2.8477q-2.5239,2.0361-4.4746,3.8237a65.061,65.061,0,0,0-6.3457,6.9971,88.6983,88.6983,0,0,0-5.37,7.6479A22.4437,22.4437,0,0,0,360.1641,407.9424Z" fill="#e870a6"/><path d="M421.3477,434.3037a13.9866,13.9866,0,0,0,8.8681,2.8477,31.7262,31.7262,0,0,0,10.333-2.0342,60.1575,60.1575,0,0,0,10.82-5.2886,118.6868,118.6868,0,0,0,10.334-7.0786q4.8808-3.7412,8.7862-7.4038t6.1836-6.2647a5.5368,5.5368,0,0,1,3.2548-2.1967,3.2329,3.2329,0,0,1,2.6846.6508,4.1806,4.1806,0,0,1,1.3018,2.7662,7.2342,7.2342,0,0,1-.7325,3.9868,88.7376,88.7376,0,0,1-23.2695,29.7783,79.8543,79.8543,0,0,1-9.8437,6.59,56.1727,56.1727,0,0,1-10.9844,4.8,44.5157,44.5157,0,0,1-11.5527,2.0337,30.5181,30.5181,0,0,1-11.7168-1.8711,27.4256,27.4256,0,0,1-11.1465-6.8345,26.0866,26.0866,0,0,1-5.94-9.8447,33.1685,33.1685,0,0,1-1.5449-11.7158,55.7,55.7,0,0,1,1.9521-12.53,69.5918,69.5918,0,0,1,4.5557-12.1225,80.8212,80.8212,0,0,1,6.1025-10.5772,107.6864,107.6864,0,0,1,7.2413-9.0308,64.9967,64.9967,0,0,1,8.705-8.1362,54.7611,54.7611,0,0,1,10.0078-6.1836,34.6111,34.6111,0,0,1,11.1465-3.1728,24.9369,24.9369,0,0,1,13.2618,2.0337,21.2848,21.2848,0,0,1,10.0078,9.0312,21.8434,21.8434,0,0,1,3.1728,12.0415,30.399,30.399,0,0,1-2.9287,11.8784,39.9029,39.9029,0,0,1-7.2412,10.4956,43.2636,43.2636,0,0,1-9.6006,7.7295,37.6139,37.6139,0,0,1-16.5156,5.4512,46.6618,46.6618,0,0,1-16.5176-1.8711,23.1069,23.1069,0,0,0-1.3828,6.9971A5.835,5.835,0,0,0,421.3477,434.3037Zm15.1328-26.3613a26.1168,26.1168,0,0,0,10.9023-7.9732,31.9254,31.9254,0,0,0,2.7666-3.9052,15.2512,15.2512,0,0,0,2.1152-5.0445q.813-2.7656-.6513-3.3359a4.9711,4.9711,0,0,0-3.417.0815,15.304,15.304,0,0,0-5.2881,2.8477q-2.5254,2.0361-4.4746,3.8237a64.9861,64.9861,0,0,0-6.3467,6.9971,88.9419,88.9419,0,0,0-5.37,7.6479A22.45,22.45,0,0,0,436.4805,407.9424Z" fill="#e870a6"/><path d="M541.9238,371.4927a13.65,13.65,0,0,1-4.8008,5.126,24.75,24.75,0,0,1-6.59,2.8476,33.3645,33.3645,0,0,1-7.4043,1.1387q-3.8247.1641-7.2412,0-2.1153,3.5815-5.5322,9.8447-3.4176,6.2666-6.834,13.3433-3.4174,7.0788-6.4277,14.1567a72.995,72.995,0,0,0-4.1495,12.1231q-1.4647,5.21.0811,6.7529,1.544,1.5483,6.2656-1.5459a44.1368,44.1368,0,0,0,7.0781-5.6953q3.4966-3.4169,6.6719-7.0782,3.1729-3.6613,6.02-7.2412,2.8447-3.5778,4.9629-6.3462a6.6463,6.6463,0,0,1,3.336-2.7666,3.1636,3.1636,0,0,1,2.7656.2442,3.4555,3.4555,0,0,1,1.3017,2.5224,7.0656,7.0656,0,0,1-.8945,4.0679q-2.6044,5.5343-5.2881,11.1465-2.685,5.614-5.6953,10.8213a72.84,72.84,0,0,1-6.6719,9.6816,42.5324,42.5324,0,0,1-8.2177,7.73,26.5432,26.5432,0,0,1-12.3672,4.7188,16.9646,16.9646,0,0,1-12.5293-3.417,16.6846,16.6846,0,0,1-6.2647-8.0547,30.0828,30.0828,0,0,1-1.708-10.17,51.7373,51.7373,0,0,1,1.1387-10.74,101.0625,101.0625,0,0,1,2.6035-9.9257q1.14-4.0658,2.7656-8.2173,1.626-4.15,3.6621-8.7061,2.0333-4.5534,4.5557-9.8447,2.5211-5.2859,5.7764-11.6343a26.11,26.11,0,0,1-4.3116-.9766,8.0648,8.0648,0,0,1-3.3359-1.9526,4.3834,4.3834,0,0,1-.8135-4.9629,13.514,13.514,0,0,1,4.0684-5.2886,24.094,24.094,0,0,1,7.0781-3.9868,17.3555,17.3555,0,0,1,8.2178-1.0576,77.1752,77.1752,0,0,1,4.9629-6.3462,42.6947,42.6947,0,0,1,5.7763-5.5327,18.6454,18.6454,0,0,1,5.9395-3.0913,17.4918,17.4918,0,0,1,6.7529-.895,11.31,11.31,0,0,1,5.8575,2.1152,8.6039,8.6039,0,0,1,3.2548,5.94,11.6891,11.6891,0,0,1-1.0576,7.3222,37.9771,37.9771,0,0,1-3.9863,6.3462,26.62,26.62,0,0,0,3.7422,1.0576,18.2516,18.2516,0,0,0,3.7422.4073,3.753,3.753,0,0,1,3.7431,2.0337A4.3165,4.3165,0,0,1,541.9238,371.4927Z" fill="#e870a6"/><path d="M79.627,550.5615a45.66,45.66,0,0,1,8.2168-16.68,67.1,67.1,0,0,1,13.9121-13.5058,71.7308,71.7308,0,0,1,17.1679-9.1934,57.6475,57.6475,0,0,1,17.9805-3.7431,43.1725,43.1725,0,0,1,16.2725,2.6855,37.7547,37.7547,0,0,1,13.0175,8.2168,36.2427,36.2427,0,0,1,8.462,12.6924,39.0472,39.0472,0,0,1,2.6035,16.1094,55.4119,55.4119,0,0,1-4.7188,19.8525A91.5316,91.5316,0,0,1,161.8828,585.14a101.818,101.818,0,0,1-14.5644,15.6211,120.4356,120.4356,0,0,1-16.4346,12.1231,80.7884,80.7884,0,0,1-8.1358,4.1494,65.3636,65.3636,0,0,1-9.6826,3.417,61.6747,61.6747,0,0,1-10.2509,1.8711,28.4878,28.4878,0,0,1-9.6817-.65,19.9634,19.9634,0,0,1-8.1367-4.1494,18.0924,18.0924,0,0,1-5.3691-8.38,21.2075,21.2075,0,0,1-1.14-10.0889,41.9788,41.9788,0,0,1,2.6846-10.333,66.4131,66.4131,0,0,1,4.8818-9.8447q2.8462-4.7182,5.6143-8.4619,2.9281-3.9052,6.1836-7.8106,3.2518-3.9052,6.7519-7.5664a92.09,92.09,0,0,1,7.16-6.7529,43.9558,43.9558,0,0,1,7.2412-5.0449,7.9408,7.9408,0,0,1,4.3935-.9756,8.1169,8.1169,0,0,1,3.9864,1.3018,6.2657,6.2657,0,0,1,2.4414,3.0918,6,6,0,0,1-.0821,4.23,24.143,24.143,0,0,1-3.66,6.9971q-2.5254,3.4175-4.4756,6.5088-5.0465,7.6509-10.6582,15.7031a126.7472,126.7472,0,0,0-9.8447,16.6787q-1.3038,2.7686-.65,3.8242a2.4792,2.4792,0,0,0,2.44.9756,14.0716,14.0716,0,0,0,4.3115-1.0576q2.5226-.9756,4.8828-2.0342a41.6023,41.6023,0,0,0,4.1485-2.1152,17.5663,17.5663,0,0,1,2.2793-1.22,83.7221,83.7221,0,0,0,10.82-7.73,110.6006,110.6006,0,0,0,9.6816-9.1944,104.3858,104.3858,0,0,0,6.834-8.4609,60.2263,60.2263,0,0,0,6.1026-10.333,36.1667,36.1667,0,0,0,3.1728-11.0654,18.9015,18.9015,0,0,0-1.9521-10.8213,12.1677,12.1677,0,0,0-5.5323-5.8575,19.8579,19.8579,0,0,0-7.81-2.0341,32.6823,32.6823,0,0,0-8.543.65,57.1512,57.1512,0,0,0-7.8926,2.1972,71.0242,71.0242,0,0,0-17.4921,9.2754A55.4821,55.4821,0,0,0,91.668,556.2568a9.4286,9.4286,0,0,1-4.5567,3.9053,5.5547,5.5547,0,0,1-4.3935-.1631,6.4982,6.4982,0,0,1-3.0108-3.498A8.8271,8.8271,0,0,1,79.627,550.5615Z" fill="#e870a6"/><path d="M252.1094,550.5615a35.4408,35.4408,0,0,0-15.8653,1.627,52.2554,52.2554,0,0,0-14.0761,7.4033,72.4853,72.4853,0,0,0-11.7969,10.9023A89.9118,89.9118,0,0,0,201.34,582.78q-6.51,10.7388-6.2646,14.0752t4.4756,1.0576q4.2275-2.2764,10.9824-9.2754a128.6291,128.6291,0,0,0,13.4258-16.76q1.623-2.2777,3.498-4.7187a35.5959,35.5959,0,0,1,4.0684-4.4756,21.2818,21.2818,0,0,1,4.9629-3.417,17.2293,17.2293,0,0,1,6.02-1.708,12.5911,12.5911,0,0,1,6.5908.9756,9.2709,9.2709,0,0,1,4.0674,3.6611,9.4734,9.4734,0,0,1,1.14,5.6143,15.8785,15.8785,0,0,1-2.3593,6.834,48.1936,48.1936,0,0,1-2.6035,4.1494q-1.629,2.3613-3.336,5.1259-1.7094,2.7685-3.2549,5.6143a43.3692,43.3692,0,0,0-2.5224,5.4512q-1.3038,3.5815.65,3.3359t5.208-3.0107a99.8018,99.8018,0,0,0,11.3095-11.1465q5.1242-5.9385,9.8438-10.9834a3.7045,3.7045,0,0,1,2.0342-1.14,3.0251,3.0251,0,0,1,1.9531.3262,3.2385,3.2385,0,0,1,1.3828,1.5459,3.906,3.906,0,0,1,.1631,2.5215,53.26,53.26,0,0,1-5.4512,13.2627,96.747,96.747,0,0,1-9.8457,14.5635,81.1549,81.1549,0,0,1-12.2031,12.2041q-6.51,5.2089-12.3672,6.0205a17.2864,17.2864,0,0,1-7.3223-.5694,14.88,14.88,0,0,1-5.8584-3.3359,16.7933,16.7933,0,0,1-3.9052-5.6143,17.8014,17.8014,0,0,1-1.4649-7.2412,33.886,33.886,0,0,1,.57-6.1826,51.5452,51.5452,0,0,1,1.545-6.1836q-2.7685,4.7213-5.8575,10.251a61.6548,61.6548,0,0,1-6.997,10.0889,28.4838,28.4838,0,0,1-8.7061,6.997,15.6223,15.6223,0,0,1-10.9834.9766q-6.9946-1.6245-9.9258-6.3467a22.8473,22.8473,0,0,1-3.3359-10.6582,39.542,39.542,0,0,1,1.14-12.2041,65.403,65.403,0,0,1,3.66-10.9834,94.2452,94.2452,0,0,1,13.9941-22.5371A90.8166,90.8166,0,0,1,209.15,541.2861a67.48,67.48,0,0,1,11.31-6.1025,51.8326,51.8326,0,0,1,12.7734-3.6611,37.8735,37.8735,0,0,1,12.8555.2441,26.0979,26.0979,0,0,1,11.7158,5.6143,6.9409,6.9409,0,0,1,2.5215,4.1494,7.8141,7.8141,0,0,1-3.416,7.9736A6.8273,6.8273,0,0,1,252.1094,550.5615Z" fill="#e870a6"/><path d="M306.2949,560.9756a26.0964,26.0964,0,0,0,3.0918-6.5908q.4893-2.1959-.5693-2.9287a3.9843,3.9843,0,0,0-3.1729-.2442,22.2935,22.2935,0,0,0-4.6386,1.709q-2.524,1.22-5.043,2.6846a34.1261,34.1261,0,0,0-4.15,2.7666q-5.858,4.2333-7.6475,7.2412-1.793,3.0117-.9765,4.3115a2.2449,2.2449,0,0,0,1.9521.8955q1.4649.0835,3.418,0a29.1069,29.1069,0,0,0,3.8242-.4072,18.5448,18.5448,0,0,1,3.01-.3252,20.6691,20.6691,0,0,1,9.8447,1.3017,17.0333,17.0333,0,0,1,6.915,5.044,17.754,17.754,0,0,1,3.4991,7.73,24.5366,24.5366,0,0,1-.0811,9.5195,30.3867,30.3867,0,0,0,5.94-4.5566,73.9159,73.9159,0,0,0,5.2881-5.6953q2.4418-2.9283,4.3935-5.7764,1.9527-2.8448,3.418-4.6377a7.3916,7.3916,0,0,1,3.498-2.7656,2.795,2.795,0,0,1,2.6846.3252,3.6676,3.6676,0,0,1,1.14,2.6035,7.2575,7.2575,0,0,1-1.3027,4.2305,152.0769,152.0769,0,0,1-13.18,20.5849,79.6421,79.6421,0,0,1-16.5976,16.19,40.7408,40.7408,0,0,1-9.3575,4.8008,65.0225,65.0225,0,0,1-11.3906,3.0908,61.3287,61.3287,0,0,1-11.6338.9766,33.426,33.426,0,0,1-10.0888-1.5459,27.2431,27.2431,0,0,1-4.6377-2.1963,22.9735,22.9735,0,0,1-4.3116-3.2549,15.9973,15.9973,0,0,1-3.1738-4.23,10.9847,10.9847,0,0,1-1.2207-5.126,10.4771,10.4771,0,0,1,1.9531-6.1836,12.5641,12.5641,0,0,1,4.8008-4.1494,12.1724,12.1724,0,0,1,6.0195-1.22,9.7886,9.7886,0,0,1,5.7774,2.2773,29.77,29.77,0,0,0,7.9726,5.0449,13.7737,13.7737,0,0,0,3.9874-2.3593,56.3082,56.3082,0,0,0,6.02-5.126,52.8209,52.8209,0,0,0,5.1259-5.6953q2.1138-2.7657,1.3018-4.2305a2.383,2.383,0,0,0-2.2773-.8955,10.1287,10.1287,0,0,0-2.6036.4072,33.3361,33.3361,0,0,1-8.1367.65,27.2123,27.2123,0,0,1-7.9736-1.4639,18.186,18.186,0,0,1-6.5908-3.9873,14.4868,14.4868,0,0,1-3.9864-7.2412,20.9238,20.9238,0,0,1-.4882-10.0068,31.2548,31.2548,0,0,1,3.58-9.5195,40.7071,40.7071,0,0,1,6.2657-8.2989,55.6126,55.6126,0,0,1,7.5664-6.5088,52.1834,52.1834,0,0,1,9.0312-4.7187,40.0558,40.0558,0,0,1,10.4141-2.7666,25.0583,25.0583,0,0,1,10.251.8135,17.1732,17.1732,0,0,1,8.5429,5.8584,14.601,14.601,0,0,1,3.336,8.38,19.0841,19.0841,0,0,1-1.4639,8.543,22.8294,22.8294,0,0,1-12.6113,12.2041q-3.2579.9771-4.7188-.8135Q304.6681,563.9058,306.2949,560.9756Z" fill="#e870a6"/><path d="M364.2227,559.3477l-4.5567,8.1367q2.6016-3.4175,5.207-6.753,2.6016-3.3339,5.3692-6.5908,3.2548-3.9052,7.73-8.8681a59.5379,59.5379,0,0,1,9.6-8.6241,30.06,30.06,0,0,1,10.8222-4.9629,16.3646,16.3646,0,0,1,11.5528,1.79,14.8685,14.8685,0,0,1,5.3691,4.5557,16.6824,16.6824,0,0,1,2.6856,6.1025,20.618,20.618,0,0,1,.3251,6.834,34.5447,34.5447,0,0,1-1.5458,6.916,83.9709,83.9709,0,0,1-9.52,19.12q-5.9414,8.87-11.6347,17.4922-2.7686,4.2335-3.1719,6.3467-.4088,2.1167.7314,2.5215,1.1367.4086,3.58-.8135a25.5879,25.5879,0,0,0,5.37-3.8242,63.03,63.03,0,0,0,6.1016-5.9395q2.8447-3.1728,5.7773-6.1016,3.252-3.4175,6.5078-6.916,3.255-3.4965,6.51-7.2412a5.8235,5.8235,0,0,1,2.9287-1.9521,3.0564,3.0564,0,0,1,2.44.3252,3.2127,3.2127,0,0,1,1.3028,2.0341,4.4157,4.4157,0,0,1-.4883,3.0108q-1.3051,2.44-3.58,5.8574-2.2808,3.4174-4.8008,6.916-2.5254,3.501-5.0439,6.753-2.5239,3.2563-4.1494,5.37-2.93,3.9052-6.59,8.38a45.0677,45.0677,0,0,1-8.0547,7.7294A28.3341,28.3341,0,0,1,391.56,621.59a16.0507,16.0507,0,0,1-10.5772-.8955,16.8983,16.8983,0,0,1-7.2412-5.288,18.8158,18.8158,0,0,1-3.417-7.4043,23.6033,23.6033,0,0,1-.2441-8.543,43.5942,43.5942,0,0,1,2.1152-8.543,64.6621,64.6621,0,0,1,5.126-10.4951q3.0087-4.9614,6.2646-9.6006,3.2535-4.6377,6.6719-9.1123a101.1262,101.1262,0,0,0,6.3457-9.3564q1.79-2.93,1.2207-3.6621-.5712-.7311-2.7656.3261a37.8263,37.8263,0,0,0-5.6953,3.6612q-3.501,2.6045-7.8926,6.5087a88.8173,88.8173,0,0,0-9.2754,9.3565q-4.2334,4.9657-8.4609,10.17-3.4174,4.2335-6.7539,8.38-3.3369,4.15-6.1836,8.4619a69.9126,69.9126,0,0,0-5.043,9.0313,41.1031,41.1031,0,0,0-3.1738,10.2519,8.43,8.43,0,0,1-2.2783,4.7188,9.2936,9.2936,0,0,1-4.0674,2.44,10.32,10.32,0,0,1-4.6387.2441,9.738,9.738,0,0,1-4.1484-1.7089,9.6114,9.6114,0,0,1-3.7432-5.5323,23.2642,23.2642,0,0,1-.6514-7.8916,55.2708,55.2708,0,0,1,1.4649-8.95,91.1073,91.1073,0,0,1,2.6855-8.9492q1.5485-4.3095,3.0918-7.9736,1.5469-3.6621,2.5215-5.7764,5.042-11.5531,11.0654-22.5371,6.019-10.9848,12.8545-21.3984,1.4649-2.2764,3.9063-6.0205,2.44-3.7413,5.4512-7.7295,3.0087-3.986,6.5087-7.8106a39.5093,39.5093,0,0,1,7.1592-6.2646,18.3723,18.3723,0,0,1,7.5664-3.01,10.3019,10.3019,0,0,1,7.4864,1.8706,9.9226,9.9226,0,0,1,4.5556,6.5908,13.5333,13.5333,0,0,1-.9756,8.2178,45.4189,45.4189,0,0,1-4.6386,8.0547,92.5281,92.5281,0,0,1-6.752,8.2988q-3.9052,4.3125-8.8691,9.3565-4.9659,5.0449-10.9834,11.0644Z" fill="#e870a6"/><path d="M486.5869,503.0459a11.5013,11.5013,0,0,1,4.6377,7.4043,20.1807,20.1807,0,0,1-.7324,8.543,34.7592,34.7592,0,0,1-3.8242,8.4609q-2.5239,4.0693-4.6367,6.835A20.5137,20.5137,0,0,1,486.75,537.95a33.627,33.627,0,0,1,3.7422,4.6377,102.7963,102.7963,0,0,0,10.74,1.3017q5.0406.3282,9.8447.1631a81.8425,81.8425,0,0,0,9.6006-.8955q4.7975-.7324,10.0069-1.8711a6.2841,6.2841,0,0,1,3.6611.0811,3.3407,3.3407,0,0,1,1.8721,1.6269,3.1645,3.1645,0,0,1,0,2.4414,5.0269,5.0269,0,0,1-1.79,2.3594,53.5415,53.5415,0,0,1-10.415,6.2647,84.7781,84.7781,0,0,1-10.9834,4.1494,99.66,99.66,0,0,1-10.251,2.5224,61.8352,61.8352,0,0,1-8.0556,1.0577,58.6149,58.6149,0,0,1-5.044,19.2011,115.201,115.201,0,0,1-9.1123,16.7608,92.6135,92.6135,0,0,1-10.4141,12.3662,48.8925,48.8925,0,0,1-13.1806,9.4385,31.935,31.935,0,0,1-9.52,2.5214,29.6371,29.6371,0,0,1-9.8447-.4873,23.812,23.812,0,0,1-8.7871-3.9873,18.4294,18.4294,0,0,1-6.1836-7.81,28.3937,28.3937,0,0,1-2.44-13.0986,58.8392,58.8392,0,0,1,2.3594-13.8321,95.1579,95.1579,0,0,1,5.1259-13.5058q3.0894-6.59,5.8575-12.1231a352.87,352.87,0,0,1,18.5507-31.73q8.1358-12.04,14.5635-18.0625,6.4263-6.0177,11.31-6.6714A11.082,11.082,0,0,1,486.5869,503.0459Zm-25.8721,83.9648q9.274-13.34,12.2032-26.0351a21.5765,21.5765,0,0,1-5.2881-2.93,13.2128,13.2128,0,0,1-3.8242-4.7188,46.2431,46.2431,0,0,0-5.6944,7.0792q-2.77,4.1484-5.208,8.5429-2.44,4.393-4.4746,8.542-2.0376,4.15-3.3359,6.916a77.2216,77.2216,0,0,0-4.3115,11.8789q-1.0606,4.393-.4073,6.1836a2.0818,2.0818,0,0,0,2.6846,1.3828,12.6736,12.6736,0,0,0,4.8818-2.6035,49.8032,49.8032,0,0,0,6.1836-5.8574A79.6369,79.6369,0,0,0,460.7148,587.0107Z" fill="#e870a6"/><path d="M611.72,540.9609a4.81,4.81,0,0,1,3.336.1621,2.9386,2.9386,0,0,1,1.5459,1.79,3.5687,3.5687,0,0,1-.3252,2.5224,5.5784,5.5784,0,0,1-2.2784,2.3594,108.1966,108.1966,0,0,1-18.957,9.4375,76.3048,76.3048,0,0,1-19.2822,4.72,57.8005,57.8005,0,0,1-3.0108,13.587,116.5214,116.5214,0,0,1-5.1259,12.4482,91.88,91.88,0,0,1-5.2881,9.4375,89.5165,89.5165,0,0,1-6.5908,9.0313,63.0668,63.0668,0,0,1-7.8106,7.8925,36.56,36.56,0,0,1-9.1123,5.6953,26.8252,26.8252,0,0,1-15.2959,2.1963,28.841,28.841,0,0,1-13.2617-5.6953,29.6828,29.6828,0,0,1-8.95-11.5527,28.272,28.272,0,0,1-2.1963-15.2149,71.1315,71.1315,0,0,1,6.9971-23.8388,77.5908,77.5908,0,0,1,14.3193-20.4219,67.1848,67.1848,0,0,1,8.8682-7.73,40.1542,40.1542,0,0,1,10.333-5.4512,20.3153,20.3153,0,0,1,3.9053-1.0576,33.3883,33.3883,0,0,1,4.6377-.4883,18.1488,18.1488,0,0,1,4.5566.4073,12.4,12.4,0,0,1,3.9863,1.6269,16.4758,16.4758,0,0,1,8.1358,3.0108,26.5687,26.5687,0,0,1,6.6718,6.59,80.4868,80.4868,0,0,0,20.585,1.4648A128.6337,128.6337,0,0,0,611.72,540.9609Zm-82.6631,31.7305a65.8908,65.8908,0,0,0-6.02,12.8555A52.928,52.928,0,0,0,520.27,597.1q-.4893,4.8824,1.22,6.7529,1.71,1.8722,6.2647-1.5459a67.601,67.601,0,0,0,7.0791-6.4277,70.051,70.051,0,0,0,6.1015-7.4033,83.6307,83.6307,0,0,0,5.6954-8.543,76.1844,76.1844,0,0,0,4.5566-9.1943q.8115-2.2764,1.627-4.8a27.7743,27.7743,0,0,0,1.1386-5.4512,17.7524,17.7524,0,0,1-4.6367-2.3594,17.5494,17.5494,0,0,1-4.1494-4.3125,54.2553,54.2553,0,0,0-8.95,8.7061A82.4181,82.4181,0,0,0,529.0566,572.6914Z" fill="#e870a6"/><path d="M654.3535,550.5615a35.4446,35.4446,0,0,0-15.8662,1.627,52.2651,52.2651,0,0,0-14.0752,7.4033,72.4935,72.4935,0,0,0-11.7969,10.9023A89.8271,89.8271,0,0,0,603.584,582.78q-6.5112,10.7388-6.2647,14.0752.2432,3.3369,4.4746,1.0576,4.2291-2.2764,10.9834-9.2754a128.627,128.627,0,0,0,13.4248-16.76q1.6247-2.2777,3.4981-4.7187a35.5959,35.5959,0,0,1,4.0684-4.4756,21.2812,21.2812,0,0,1,4.9628-3.417,17.23,17.23,0,0,1,6.0215-1.708,12.5861,12.5861,0,0,1,6.59.9756,9.2678,9.2678,0,0,1,4.0683,3.6611A9.4733,9.4733,0,0,1,656.55,567.81a15.88,15.88,0,0,1-2.3594,6.834,47.9225,47.9225,0,0,1-2.6035,4.1494q-1.6289,2.3613-3.3359,5.1259-1.708,2.7685-3.2549,5.6143a43.3572,43.3572,0,0,0-2.5215,5.4512q-1.3051,3.5815.65,3.3359,1.9527-.2446,5.207-3.0107a99.6456,99.6456,0,0,0,11.31-11.1465q5.1255-5.9385,9.8447-10.9834a3.6982,3.6982,0,0,1,2.0342-1.14,3.0224,3.0224,0,0,1,1.9522.3262,3.2446,3.2446,0,0,1,1.3837,1.5459,3.9,3.9,0,0,1,.1622,2.5215,53.2251,53.2251,0,0,1-5.4512,13.2627,96.74,96.74,0,0,1-9.8447,14.5635,81.17,81.17,0,0,1-12.2041,12.2041q-6.51,5.2089-12.3672,6.0205a17.2876,17.2876,0,0,1-7.3223-.5694,14.868,14.868,0,0,1-5.8574-3.3359,16.7663,16.7663,0,0,1-3.9053-5.6143,17.8014,17.8014,0,0,1-1.4648-7.2412,33.9642,33.9642,0,0,1,.5693-6.1826,51.5506,51.5506,0,0,1,1.5459-6.1836q-2.7686,4.7213-5.8584,10.251a61.5891,61.5891,0,0,1-6.9961,10.0889,28.5059,28.5059,0,0,1-8.706,6.997,15.6229,15.6229,0,0,1-10.9834.9766q-6.9946-1.6245-9.9268-6.3467A22.845,22.845,0,0,1,572.91,604.666a39.5358,39.5358,0,0,1,1.14-12.2041,65.4817,65.4817,0,0,1,3.6611-10.9834,94.2424,94.2424,0,0,1,13.9942-22.5371,90.7906,90.7906,0,0,1,19.6894-17.6553,67.4772,67.4772,0,0,1,11.3086-6.1025,51.84,51.84,0,0,1,12.7744-3.6611,37.8675,37.8675,0,0,1,12.8545.2441,26.0879,26.0879,0,0,1,11.7159,5.6143A6.9381,6.9381,0,0,1,662.57,541.53a7.8171,7.8171,0,0,1-3.417,7.9736A6.8245,6.8245,0,0,1,654.3535,550.5615Z" fill="#e870a6"/><path d="M649.959,596.4492q3.7457-5.2061,7.2412-10.2519,3.501-5.0421,6.7529-10.333,3.2579-5.2853,6.2647-11.0645a126.08,126.08,0,0,0,5.6142-12.4482q-2.44-2.93-2.44-8.1368a13.22,13.22,0,0,1,1.8711-6.6718,19.3866,19.3866,0,0,1,4.7187-5.5323,18.9321,18.9321,0,0,1,6.2647-3.3359,13.9831,13.9831,0,0,1,6.835-.4062,11.4565,11.4565,0,0,1,6.5087,3.7421,11.2481,11.2481,0,0,1,2.6036,6.1836,71.0611,71.0611,0,0,1,7.8105,3.0108,26.666,26.666,0,0,1,6.6719,4.3115,18.5992,18.5992,0,0,1,4.5556,6.1025,17.0271,17.0271,0,0,1,1.3018,8.38,30.0259,30.0259,0,0,1-2.1152,9.0313,64.3836,64.3836,0,0,1-4.3936,8.8681q-2.6045,4.393-5.37,8.462-2.7686,4.0692-5.0439,7.9726a44.3258,44.3258,0,0,0-2.6856,5.2891,7.3719,7.3719,0,0,0-.8135,3.8242q.2446,1.3036,2.0342.8135t6.0205-3.7432a103.8243,103.8243,0,0,0,13.0186-11.8789q6.0175-6.5054,12.041-13.0176l2.2783-2.2783a5.2678,5.2678,0,0,1,2.6035-1.4639,2.7663,2.7663,0,0,1,2.5225.4883,3.329,3.329,0,0,1,1.0576,2.1152q.16,1.3038-1.2207,4.3936-1.3844,3.0923-3.2549,6.5088t-3.8232,6.4277q-1.9527,3.0132-2.7666,4.3115-2.93,4.3945-6.753,9.4385a62.4175,62.4175,0,0,1-8.5429,9.1934,36.9251,36.9251,0,0,1-10.17,6.4277,19.6784,19.6784,0,0,1-11.4717,1.1387,15.8051,15.8051,0,0,1-10.74-6.915,22.2115,22.2115,0,0,1-3.7422-12.6114A28.59,28.59,0,0,1,684.05,590.998a130.0328,130.0328,0,0,1,6.1836-11.9609q3.3326-5.6938,6.1826-10.251,2.8462-4.5542,2.8477-6.997,0-1.3008-2.1153-1.627t-3.417-.6514q-2.93,4.2334-6.2646,8.7061-3.3369,4.4766-6.7529,8.7871-3.4176,4.3125-6.916,8.38-3.501,4.0694-6.59,7.4853a71.3175,71.3175,0,0,1-10.5771,9.6817q-4.8823,3.501-7.6485,3.9863-2.7642.4893-2.8476-1.9521Q646.0556,602.1445,649.959,596.4492Z" fill="#e870a6"/><path d="M822.9307,576.1084a15.251,15.251,0,0,0,1.3838-1.627,6.95,6.95,0,0,1,1.708-1.6269,4.1654,4.1654,0,0,1,1.9531-.7324,2.9749,2.9749,0,0,1,2.1152.8945,2.8838,2.8838,0,0,1,1.0576,2.1152,6.7464,6.7464,0,0,1-.4072,2.6856,23.5115,23.5115,0,0,1-1.1387,2.6846q-.6517,1.3037-.9765,2.1152A107.6541,107.6541,0,0,1,816.5039,603.12a66.405,66.405,0,0,1-16.5166,15.9473,20.9909,20.9909,0,0,1-6.2646,2.6846,14.18,14.18,0,0,1-6.9161.081,11.8871,11.8871,0,0,1-7.2412-4.7187,18.3794,18.3794,0,0,1-3.1728-8.1358,26.7742,26.7742,0,0,1,.3252-9.2754,24.94,24.94,0,0,1,3.0918-8.1357q-2.1168,3.2563-4.6377,7.1592-2.5239,3.9053-5.4512,7.8105-2.9281,3.9068-6.1016,7.4043a31.185,31.185,0,0,1-6.7529,5.6953,19.5944,19.5944,0,0,1-7.4043,2.7666A13.4283,13.4283,0,0,1,741.57,621.02a18.8245,18.8245,0,0,1-8.95-7.4853,23.6279,23.6279,0,0,1-3.1728-10.4141,39.9773,39.9773,0,0,1,1.0576-11.96,74.8088,74.8088,0,0,1,3.9863-12.2041,95.8151,95.8151,0,0,1,5.5332-11.0655q3.0088-5.1255,5.6133-8.7051a106.5266,106.5266,0,0,1,11.7978-13.5878,59.5422,59.5422,0,0,1,14.5635-10.4952,35.2,35.2,0,0,1,6.5088-2.44,33.0175,33.0175,0,0,1,7.2412-1.14,22.7978,22.7978,0,0,1,7.16.8134,14.4831,14.4831,0,0,1,6.1015,3.418,7.7873,7.7873,0,0,1,2.1153,3.417q.9769-2.6016,2.6855-6.5908,1.708-3.9845,4.0674-8.38,2.3569-4.3931,5.207-8.7871a61.2645,61.2645,0,0,1,5.9395-7.8106,29.3654,29.3654,0,0,1,6.4277-5.4511,11.7494,11.7494,0,0,1,6.753-1.8716,11.6092,11.6092,0,0,1,5.4511,1.9526,10.7406,10.7406,0,0,1,3.58,4.0684,13.5687,13.5687,0,0,1,1.3828,5.37,14.5373,14.5373,0,0,1-.8135,5.6953,35.7377,35.7377,0,0,1-3.417,6.9151q-2.1166,3.3369-4.5566,6.5908-2.44,3.2563-4.9629,6.59-2.5239,3.3369-4.9629,6.7529-6.186,11.7159-12.5293,23.7579A187.8151,187.8151,0,0,0,800.8008,591.73q-1.14,3.2578.4883,4.2314,1.6245.9756,5.5322-2.93,2.4419-2.44,6.6719-6.59T822.9307,576.1084Zm-39.0528-23.5947a52.4431,52.4431,0,0,0-9.7636,8.2177,113.0589,113.0589,0,0,0-9.1934,10.9834,97.0563,97.0563,0,0,0-7.4854,11.7979,59.9933,59.9933,0,0,0-4.6376,10.82q-1.1412,3.7457.4062,4.8008,1.5454,1.06,5.4512-1.709a54.0639,54.0639,0,0,0,7.3232-5.9394q4.065-3.82,8.2988-8.461,4.2291-4.6377,8.2168-9.3564,3.9859-4.7183,7.2413-8.4619,1.7884-4.2291,3.499-8.462,1.7079-4.229,3.6611-8.4609-2.7685.3282-5.6142.8135A21.7807,21.7807,0,0,0,783.8779,552.5137Z" fill="#e870a6"/><path d="M755.4072,503.6189,725.52,431.51a11.0141,11.0141,0,1,1,20.35-8.4344,11.3951,11.3951,0,0,1,.77,2.98Z" fill="#e870a6"/><path d="M730.7648,507.4648l-59.6015-41.78A11.0307,11.0307,0,1,1,683.8267,447.62a11.3659,11.3659,0,0,1,2.3918,2.2816Z" fill="#e870a6"/><path d="M846.3347,607.3293l77.8911,5.0976a11.0142,11.0142,0,0,1-1.4387,21.9814,11.4017,11.4017,0,0,1-3.0129-.6281Z" fill="#e870a6"/><path d="M843.6561,632.1258l59.6015,41.78a11.0306,11.0306,0,1,1-12.6632,18.065,11.36,11.36,0,0,1-2.392-2.2817Z" fill="#e870a6"/></g></svg>