<svg xmlns="http://www.w3.org/2000/svg" viewBox="0 0 1000 1000"><g id="backgroun"><rect width="1000" height="1000" fill="#fff"/></g><g id="logo"><text transform="translate(97.6958 456.9219)" font-size="162.7222" fill="#e870a6" font-family="AveFedanPERSONALUSEONLY, Ave Fedan PERSONAL USE ONLY">Sweet</text><text transform="translate(77.999 622.4844)" font-size="162.7222" fill="#e870a6" font-family="AveFedanPERSONALUSEONLY, Ave Fedan PERSONAL USE ONLY">Dashb<tspan x="425.0225" y="0" letter-spacing="-0.011em">o</tspan><tspan x="503.6182" y="0">ard</tspan></text><path d="M755.4072,503.6189,725.52,431.51a11.0142,11.0142,0,0,1,20.35-8.4344,11.399,11.399,0,0,1,.77,2.98Z" fill="#e870a6"/><path d="M730.7647,507.4648l-59.6014-41.78A11.0307,11.0307,0,0,1,683.8266,447.62a11.3645,11.3645,0,0,1,2.392,2.2816Z" fill="#e870a6"/><path d="M846.3347,607.3293l77.8911,5.0976a11.0142,11.0142,0,1,1-1.4386,21.9814,11.4016,11.4016,0,0,1-3.013-.6281Z" fill="#e870a6"/><path d="M843.6562,632.1258l59.6014,41.78a11.0307,11.0307,0,1,1-12.6633,18.065,11.3619,11.3619,0,0,1-2.3919-2.2817Z" fill="#e870a6"/></g></svg>