<svg xmlns="http://www.w3.org/2000/svg" viewBox="0 0 1000 1000"><g id="backgroun"><rect width="1000" height="1000" fill="#fff"/></g><g id="logo"><rect x="749.0604" y="403.3065" width="8.8587" height="206.3348" transform="translate(-139.9124 344.9339) rotate(-23.6587)" fill="#f8f3f7"/><path d="M792.42,358.8524a94.867,94.867,0,1,1-124.9517-48.8556A94.8651,94.8651,0,0,1,792.42,358.8524Z" fill="#e870a6"/><path d="M705.5153,396.9s-49.7128-20.6807-49.1784-81.1309c0,0,15.782-14.5521,47.5585-13.74C703.8954,302.0284,676.5057,349.6271,705.5153,396.9Z" fill="#fdfadb"/><path d="M744.1987,310.2829S703.777,330.487,705.5153,396.9c0,0,21.0921-49.2664,69.0462-65.0767C774.5615,331.8229,759.8653,315.6859,744.1987,310.2829Z" fill="#fdfadb"/><path d="M705.5153,396.9s38.362-40.31,90.1044-29.693c0,0,6.1691,16.9706,4.7452,31.6176C800.3649,398.8242,760.9411,380.4585,705.5153,396.9Z" fill="#fdfadb"/><path d="M705.5153,396.9s57.1575,5.9547,83.4784,45.0236c0,0-11.7907,18.9271-20.1823,25.6458C768.8114,467.569,764.8409,435.2446,705.5153,396.9Z" fill="#fdfadb"/><path d="M705.5153,396.9s40.1141,47.883,21.1292,92.4955c0,0-19.9284,5.2509-36.1024,1.1738C690.5421,490.5689,721.1857,463.15,705.5153,396.9Z" fill="#fdfadb"/><path d="M622.7846,350.4712s17.4732,60.7643,82.7307,46.4284c0,0-45.4849,37.6062-94.8528,2.1715A80.3115,80.3115,0,0,1,622.7846,350.4712Z" fill="#fdfadb"/><path d="M623.7859,445.0687s59.3693-4.2265,81.7294-48.1691c0,0-2.1646,60.1288-58.412,74.764C647.1033,471.6636,628.6261,458.0972,623.7859,445.0687Z" fill="#fdfadb"/><path d="M790.7289,374.9706s-21.7616-59.6872-65.1328-66.67-78.9867,22.5107-89.59,39.2261c-10.6135,16.715,39.6912-32.8659,68.2679-26.277C788.0974,340.5729,793.7186,408.9777,790.7289,374.9706Z" fill="#fff" opacity="0.5"/><rect x="707.3997" y="489.6211" width="206.3325" height="8.8587" transform="translate(209.337 1228.6433) rotate(-82.0642)" fill="#f8f3f7"/><path d="M921.0752,388.7178a94.868,94.868,0,1,1-80.8264-107.0864A94.8677,94.8677,0,0,1,921.0752,388.7178Z" fill="#e870a6"/><path d="M827.1188,375.5861s-31.5061-43.6635.6258-94.8715c0,0,21.0683-4.1229,47.7106,13.2166C875.4552,293.9312,827.18,320.1236,827.1188,375.5861Z" fill="#fdfadb"/><path d="M905.4526,322.0819s-45.015-3.9726-78.3338,53.5042c0,0,43.78-30.909,92.908-19.2485C920.0268,356.3376,915.9645,334.8939,905.4526,322.0819Z" fill="#fdfadb"/><path d="M827.1188,375.5861s53.7952-14.2342,92.3026,21.9241c0,0-3.6359,17.6861-12.5211,29.4158C906.9,426.926,882.9436,390.6238,827.1188,375.5861Z" fill="#fdfadb"/><path d="M827.1188,375.5861s45.5629,35.0187,47.5111,82.0882c0,0-19.9589,9.9439-30.63,11.27C844,468.944,857.556,439.33,827.1188,375.5861Z" fill="#fdfadb"/><path d="M827.1188,375.5861s9.0781,61.8013-30.4677,89.8505c0,0-19.7255-5.97-31.3637-17.9158C765.2874,447.5208,805.7531,440.2216,827.1188,375.5861Z" fill="#fdfadb"/><path d="M780.9845,292.69s-16.9554,60.91,46.1343,82.8962c0,0-58.4459,8.1952-81.9223-47.8526A80.3105,80.3105,0,0,1,780.9845,292.69Z" fill="#fdfadb"/><path d="M732.27,373.7851s52.7769,27.51,94.8493,1.801c0,0-33.3493,50.0765-88.9237,33.0705C738.1951,408.6566,729.567,387.419,732.27,373.7851Z" fill="#fdfadb"/><path d="M911.1888,401.5589s12.741-62.2408-20.54-90.9127-79.0677-22.2146-96.862-13.5359c-17.7976,8.6756,51.0321-7.1939,71.914,13.3939C926.9707,370.8813,895.918,432.089,911.1888,401.5589Z" fill="#fff" opacity="0.5"/><path d="M124.7168,450.0225q-.8613.8613-2.7471,3.1767a41.5179,41.5179,0,0,0-3.4345,4.8946,12.1916,12.1916,0,0,0-1.8028,4.8085,2.9945,2.9945,0,0,0,2.1465,3.2627,11.5121,11.5121,0,0,0,5.4092.5147,39.57,39.57,0,0,0,6.5254-1.2881q3.3486-.9418,6.3545-2.06,3.0029-1.1148,4.7226-1.8028,4.2891-2.061,8.7578-4.6367a66.2345,66.2345,0,0,0,8.4141-5.7529,62.6684,62.6684,0,0,0,7.2129-6.7832,36.3534,36.3534,0,0,0,5.3242-7.5567,16.6254,16.6254,0,0,0,1.8887-5.8388,9.0748,9.0748,0,0,0-.6875-5.0655,7.7449,7.7449,0,0,0-3.3477-3.4345,10.092,10.092,0,0,0-5.9258-.9444,41.787,41.787,0,0,0-10.7324,2.7471,90.3855,90.3855,0,0,1-11.42,3.6064,27.9687,27.9687,0,0,1-10.8184.6016q-5.1533-.7734-8.9306-6.44a16.1815,16.1815,0,0,1-2.6612-12.45,32.8143,32.8143,0,0,1,5.4082-12.3643,59.69,59.69,0,0,1,9.7032-10.8193,92.0836,92.0836,0,0,1,10.0468-7.8135,98.5656,98.5656,0,0,1,11.9346-6.6973,69.8338,69.8338,0,0,1,13.91-4.98,45.9424,45.9424,0,0,1,14.167-1.2022,23.4894,23.4894,0,0,1,12.709,4.8086,9.1823,9.1823,0,0,1,3.1757,4.1221,6.5131,6.5131,0,0,1,.086,4.293,7.84,7.84,0,0,1-2.5752,3.6064,11.6755,11.6755,0,0,1-4.6367,2.2324,145.57,145.57,0,0,0-22.4971,7.2119,91.6856,91.6856,0,0,0-21.294,12.0215q-5.6675,4.4678-5.2373,6.5254.4263,2.061,8.1563-.8584a47.8942,47.8942,0,0,1,13.6523-2.9189,31.1842,31.1842,0,0,1,13.8242,2.06q7.5558,2.9225,11.1631,8.5a26.61,26.61,0,0,1,4.2071,12.1934,35.9791,35.9791,0,0,1-1.46,13.5664,49.5965,49.5965,0,0,1-5.666,12.6221,62.2882,62.2882,0,0,1-12.709,14.3388A90.75,90.75,0,0,1,159.0625,480.59a92.5171,92.5171,0,0,1-12.1924,5.3233,63.2674,63.2674,0,0,1-13.5664,3.2637,48.9758,48.9758,0,0,1-13.5674-.1719,26.83,26.83,0,0,1-12.1914-5.1524q-6.6972-4.8046-7.9-11.0761a21.1453,21.1453,0,0,1,1.2022-12.1924,27.4965,27.4965,0,0,1,7.8135-10.5615,29.8623,29.8623,0,0,1,11.9355-6.3545,3.9544,3.9544,0,0,1,2.5762.1718,4.2152,4.2152,0,0,1,1.8886,1.5459,4.1,4.1,0,0,1,.6875,2.3184A3.2034,3.2034,0,0,1,124.7168,450.0225Z" fill="#e870a6"/><path d="M349.8525,430.2734a7.1959,7.1959,0,0,1,3.4346,5.4092,10.8775,10.8775,0,0,1-1.0312,6.0967,8.7113,8.7113,0,0,1-3.9493,4.0352q-2.5752,1.289-5.667-.6006l-13.0517-7.8994a161.5687,161.5687,0,0,1-16.6572,22.582,116.8252,116.8252,0,0,1-18.375,16.5723q-3.6064,2.5751-7.7276,5.1513a43.0441,43.0441,0,0,1-8.501,4.1221,26.6543,26.6543,0,0,1-8.93,1.5449,16.98,16.98,0,0,1-8.8448-2.5752q-7.727-4.8062-9.7881-12.1933a39.4034,39.4034,0,0,1-1.03-15.627q-3.0909,4.6362-6.3535,9.1016-3.2637,4.4678-6.6973,8.7578a55.7291,55.7291,0,0,1-6.9551,6.7832,30.3412,30.3412,0,0,1-8.2441,4.8945,19.47,19.47,0,0,1-9.0156,1.2881,16.14,16.14,0,0,1-8.93-4.0361,18.0241,18.0241,0,0,1-6.8692-10.1319,30.32,30.32,0,0,1-.3437-12.0205A52.0794,52.0794,0,0,1,200.02,449.249q2.6631-6.0923,5.2373-11.0761A204.7221,204.7221,0,0,1,219.94,414.8184,130.3007,130.3007,0,0,1,238.4,394.21q3.9492-3.6051,8.2432-2.919a12.7949,12.7949,0,0,1,7.2119,3.6065,12.0724,12.0724,0,0,1,3.4355,7.3838,9.944,9.944,0,0,1-3.0918,8.2431q-4.9833,5.3247-9.874,11.334-4.894,6.0132-9.3594,12.4512-4.4677,6.4394-8.2431,13.0508a107.95,107.95,0,0,0-6.3536,12.9658q-2.5765,6.1816-1.0312,6.4394t5.668-3.1767a99.714,99.714,0,0,0,13.91-13.91q6.1817-7.5541,11.8486-15.1123,6.6989-8.9268,11.0772-15.1973,4.3784-6.2681,7.2978-10.8193,2.9181-4.5483,4.9805-7.5557a38.1483,38.1483,0,0,1,4.4649-5.41,10.0745,10.0745,0,0,1,7.8994-3.3486,11.7429,11.7429,0,0,1,7.2988,2.92,12.6149,12.6149,0,0,1,3.9492,6.8691,10.616,10.616,0,0,1-1.9746,8.5,132.9785,132.9785,0,0,0-7.4707,12.1934q-3.8643,7.0429-7.3838,14.4248-3.5229,7.3857-6.2685,14.5107a85.1235,85.1235,0,0,0-3.9493,12.794,15.8455,15.8455,0,0,0-.6015,5.41q.2579,1.8018,1.2881,2.0606a3.2618,3.2618,0,0,0,2.49-.6875,26.8567,26.8567,0,0,0,3.3486-2.6612,126.0068,126.0068,0,0,0,9.5313-9.9609q5.0625-5.8359,9.874-12.45,4.8061-6.608,8.7588-13.3086a75.6116,75.6116,0,0,0,6.01-12.3642,24.3857,24.3857,0,0,1-2.2325-12.6221,20.7668,20.7668,0,0,1,3.6924-10.0469,15.2581,15.2581,0,0,1,7.6416-5.667,13.3832,13.3832,0,0,1,9.6172.5156A11.3448,11.3448,0,0,1,334.998,396.7a15.5926,15.5926,0,0,1,2.4043,6.1826,31.1117,31.1117,0,0,1,.2579,7.7276,56.0544,56.0544,0,0,1-1.375,8.5009q3.0923,2.7481,6.1826,5.4951A72.2194,72.2194,0,0,0,349.8525,430.2734Z" fill="#e870a6"/><path d="M359.8125,463.7607a14.7548,14.7548,0,0,0,9.3594,3.0049,33.47,33.47,0,0,0,10.9043-2.1465,63.5733,63.5733,0,0,0,11.42-5.581A125.1744,125.1744,0,0,0,402.4,451.5674q5.1532-3.9479,9.2734-7.8135,4.1221-3.8628,6.5254-6.6113a5.8454,5.8454,0,0,1,3.4356-2.3184,3.408,3.408,0,0,1,2.833.6865,4.4179,4.4179,0,0,1,1.374,2.92,7.6163,7.6163,0,0,1-.7734,4.207,93.648,93.648,0,0,1-24.5567,31.4268,84.21,84.21,0,0,1-10.39,6.955,59.2329,59.2329,0,0,1-11.5908,5.0655,46.9271,46.9271,0,0,1-12.1934,2.1464,32.219,32.219,0,0,1-12.3652-1.9746,28.9189,28.9189,0,0,1-11.7627-7.2129,27.529,27.529,0,0,1-6.2686-10.3886,35.0066,35.0066,0,0,1-1.6309-12.3653,58.8508,58.8508,0,0,1,2.0606-13.2226,73.3423,73.3423,0,0,1,4.8086-12.794,85.1828,85.1828,0,0,1,6.4394-11.1621,113.8093,113.8093,0,0,1,7.6426-9.5312,68.4078,68.4078,0,0,1,9.1875-8.586,57.7683,57.7683,0,0,1,10.5606-6.5263,36.538,36.538,0,0,1,11.7636-3.3487,26.331,26.331,0,0,1,13.9961,2.1465,22.4658,22.4658,0,0,1,10.5606,9.5313,23.0472,23.0472,0,0,1,3.35,12.708,32.069,32.069,0,0,1-3.0918,12.5361,42.103,42.103,0,0,1-7.6416,11.0762,45.6458,45.6458,0,0,1-10.1318,8.1572,39.6875,39.6875,0,0,1-17.4307,5.7529,49.2469,49.2469,0,0,1-17.4307-1.9746,24.3665,24.3665,0,0,0-1.459,7.3838A6.1537,6.1537,0,0,0,359.8125,463.7607Zm15.9707-27.82a27.5628,27.5628,0,0,0,11.5059-8.415,33.69,33.69,0,0,0,2.9189-4.1211,16.071,16.071,0,0,0,2.2324-5.3232q.857-2.9181-.6865-3.5206a5.2471,5.2471,0,0,0-3.6064.086,16.16,16.16,0,0,0-5.5811,3.0049q-2.6646,2.1489-4.7226,4.0361a68.5847,68.5847,0,0,0-6.6973,7.3838,93.865,93.865,0,0,0-5.668,8.0713A23.6962,23.6962,0,0,0,375.7832,435.94Z" fill="#e870a6"/><path d="M440.3516,463.7607a14.7564,14.7564,0,0,0,9.3593,3.0049,33.4645,33.4645,0,0,0,10.9043-2.1465,63.509,63.509,0,0,0,11.42-5.581,125.19,125.19,0,0,0,10.9052-7.4707q5.1519-3.9479,9.2735-7.8135,4.12-3.8628,6.5254-6.6113a5.846,5.846,0,0,1,3.4345-2.3184,3.411,3.411,0,0,1,2.834.6865,4.4214,4.4214,0,0,1,1.3731,2.92,7.6325,7.6325,0,0,1-.7715,4.207,93.6665,93.6665,0,0,1-24.5586,31.4268,84.1992,84.1992,0,0,1-10.3887,6.955A59.2622,59.2622,0,0,1,459.07,486.085a46.92,46.92,0,0,1-12.1933,2.1464,32.2149,32.2149,0,0,1-12.3643-1.9746,28.92,28.92,0,0,1-11.7627-7.2129,27.506,27.506,0,0,1-6.2686-10.3886A34.9838,34.9838,0,0,1,414.85,456.29a58.9077,58.9077,0,0,1,2.0606-13.2226,73.4147,73.4147,0,0,1,4.8086-12.794,85.1828,85.1828,0,0,1,6.4394-11.1621,113.789,113.789,0,0,1,7.6426-9.5312,68.4621,68.4621,0,0,1,9.1875-8.586,57.7718,57.7718,0,0,1,10.5615-6.5263,36.5335,36.5335,0,0,1,11.7627-3.3487,26.331,26.331,0,0,1,13.9961,2.1465,22.4673,22.4673,0,0,1,10.5615,9.5313,23.047,23.047,0,0,1,3.3487,12.708,32.0661,32.0661,0,0,1-3.0909,12.5361,42.1457,42.1457,0,0,1-7.6416,11.0762,45.6457,45.6457,0,0,1-10.1328,8.1572,39.6836,39.6836,0,0,1-17.43,5.7529,49.2435,49.2435,0,0,1-17.4306-1.9746,24.3637,24.3637,0,0,0-1.46,7.3838A6.1585,6.1585,0,0,0,440.3516,463.7607Zm15.9707-27.82a27.5619,27.5619,0,0,0,11.5058-8.415,33.6662,33.6662,0,0,0,2.92-4.1211,16.1157,16.1157,0,0,0,2.2325-5.3232q.8569-2.9181-.6875-3.5206a5.2445,5.2445,0,0,0-3.6055.086,16.1552,16.1552,0,0,0-5.582,3.0049q-2.6631,2.1489-4.7227,4.0361a68.5952,68.5952,0,0,0-6.6973,7.3838,93.85,93.85,0,0,0-5.6669,8.0713A23.692,23.692,0,0,0,456.3223,435.94Z" fill="#e870a6"/><path d="M567.6016,397.4736a14.4128,14.4128,0,0,1-5.0664,5.4092,26.0913,26.0913,0,0,1-6.9551,3.0049,35.1686,35.1686,0,0,1-7.8135,1.2021q-4.0371.1729-7.6416,0-2.2339,3.7794-5.8389,10.39-3.6064,6.6138-7.2129,14.082-3.6064,7.4707-6.7832,14.94a77.01,77.01,0,0,0-4.3789,12.7939q-1.5453,5.4975.086,7.126,1.63,1.6347,6.6113-1.6309a46.6016,46.6016,0,0,0,7.4707-6.0107q3.69-3.6065,7.04-7.47t6.3545-7.6425q3.003-3.7749,5.2373-6.6973a7.0139,7.0139,0,0,1,3.52-2.9189,3.3368,3.3368,0,0,1,2.92.2578,3.6507,3.6507,0,0,1,1.374,2.6611,7.4663,7.4663,0,0,1-.9453,4.293q-2.7482,5.84-5.5811,11.7636-2.8329,5.9253-6.0107,11.42a76.7469,76.7469,0,0,1-7.04,10.2177,44.8725,44.8725,0,0,1-8.6728,8.1573,28.0079,28.0079,0,0,1-13.0508,4.98,17.9039,17.9039,0,0,1-13.2236-3.6064,17.5982,17.5982,0,0,1-6.6114-8.501,31.7582,31.7582,0,0,1-1.8037-10.7324,54.519,54.519,0,0,1,1.2032-11.334,106.7106,106.7106,0,0,1,2.747-10.4756q1.2027-4.29,2.919-8.6728,1.7152-4.3785,3.8642-9.1875,2.1461-4.8048,4.8086-10.39,2.66-5.5781,6.0967-12.2783a27.4972,27.4972,0,0,1-4.5517-1.03,8.51,8.51,0,0,1-3.52-2.06,4.6268,4.6268,0,0,1-.8594-5.2383,14.27,14.27,0,0,1,4.294-5.5811,25.4441,25.4441,0,0,1,7.47-4.207,18.31,18.31,0,0,1,8.6719-1.1162,81.6728,81.6728,0,0,1,5.2383-6.6973,44.9651,44.9651,0,0,1,6.0967-5.8388,19.6533,19.6533,0,0,1,6.2675-3.2627,18.4687,18.4687,0,0,1,7.127-.9444,11.9267,11.9267,0,0,1,6.1826,2.2325,9.084,9.084,0,0,1,3.4346,6.2675,12.3451,12.3451,0,0,1-1.1162,7.7276,40.1052,40.1052,0,0,1-4.208,6.6982,28.4364,28.4364,0,0,0,3.95,1.1162,19.2916,19.2916,0,0,0,3.9493.4287,3.9617,3.9617,0,0,1,3.95,2.1465A4.5559,4.5559,0,0,1,567.6016,397.4736Z" fill="#e870a6"/><path d="M79.7158,586.4531a48.17,48.17,0,0,1,8.6729-17.6015A70.8239,70.8239,0,0,1,103.07,554.5977a75.7128,75.7128,0,0,1,18.1182-9.7032,60.8553,60.8553,0,0,1,18.9756-3.9492,45.5777,45.5777,0,0,1,17.1738,2.833,39.8627,39.8627,0,0,1,13.7383,8.6729,38.2432,38.2432,0,0,1,8.93,13.3945,41.2228,41.2228,0,0,1,2.747,17.001,58.4663,58.4663,0,0,1-4.98,20.9512,96.5636,96.5636,0,0,1-11.248,19.1474,107.4984,107.4984,0,0,1-15.3711,16.4863,127.1,127.1,0,0,1-17.3438,12.794,85.0568,85.0568,0,0,1-8.5859,4.3789,69.0465,69.0465,0,0,1-10.2187,3.6064,65.1572,65.1572,0,0,1-10.8184,1.9746,30.0887,30.0887,0,0,1-10.2187-.6865,21.0862,21.0862,0,0,1-8.586-4.3789,19.108,19.108,0,0,1-5.667-8.8447,22.3834,22.3834,0,0,1-1.2021-10.6465,44.2366,44.2366,0,0,1,2.834-10.9053,69.9845,69.9845,0,0,1,5.1513-10.39q3.003-4.9791,5.9248-8.93,3.0909-4.122,6.5254-8.2432t7.127-7.9853a97.3424,97.3424,0,0,1,7.5566-7.127,46.359,46.359,0,0,1,7.6416-5.3232,8.37,8.37,0,0,1,4.6358-1.03,8.5663,8.5663,0,0,1,4.208,1.374,6.61,6.61,0,0,1,2.5761,3.2627,6.34,6.34,0,0,1-.0859,4.4649,25.4555,25.4555,0,0,1-3.8643,7.3838q-2.6629,3.6065-4.7226,6.8691-5.3247,8.0742-11.2481,16.5723a133.846,133.846,0,0,0-10.39,17.6025q-1.3755,2.921-.6865,4.0352a2.6158,2.6158,0,0,0,2.5761,1.03,14.8662,14.8662,0,0,0,4.5508-1.1162q2.66-1.03,5.1514-2.1465a43.9935,43.9935,0,0,0,4.38-2.2324,18.61,18.61,0,0,1,2.4033-1.2881A88.2092,88.2092,0,0,0,132.18,625.35a116.8616,116.8616,0,0,0,10.2168-9.7021,110.4294,110.4294,0,0,0,7.2129-8.93,63.53,63.53,0,0,0,6.4394-10.9053,38.2033,38.2033,0,0,0,3.35-11.6777,19.96,19.96,0,0,0-2.0605-11.42,12.8446,12.8446,0,0,0-5.84-6.1816,20.9436,20.9436,0,0,0-8.2421-2.1475,34.5336,34.5336,0,0,0-9.0157.6875,60.4146,60.4146,0,0,0-8.33,2.3184,74.9807,74.9807,0,0,0-18.46,9.7881,58.5682,58.5682,0,0,0-15.0264,15.2842,9.9418,9.9418,0,0,1-4.8086,4.1211,5.8662,5.8662,0,0,1-4.6367-.1709,6.8565,6.8565,0,0,1-3.1767-3.6924A9.3152,9.3152,0,0,1,79.7158,586.4531Z" fill="#e870a6"/><path d="M261.7461,586.4531a37.4212,37.4212,0,0,0-16.7441,1.7178,55.1107,55.1107,0,0,0-14.8545,7.8135,76.4693,76.4693,0,0,0-12.45,11.5058,94.857,94.857,0,0,0-9.5313,12.9659q-6.87,11.3334-6.6113,14.8544t4.7226,1.1163q4.4634-2.4039,11.5918-9.7891a135.8635,135.8635,0,0,0,14.168-17.6875q1.7139-2.4037,3.6914-4.9805a37.5466,37.5466,0,0,1,4.293-4.7226,22.4684,22.4684,0,0,1,5.2383-3.6065,18.1755,18.1755,0,0,1,6.3535-1.8027,13.2761,13.2761,0,0,1,6.9551,1.03,9.7775,9.7775,0,0,1,4.2929,3.8632,9.9954,9.9954,0,0,1,1.2032,5.9249,16.7564,16.7564,0,0,1-2.49,7.2128,50.8019,50.8019,0,0,1-2.748,4.3789q-1.7182,2.4918-3.52,5.4092-1.8033,2.9225-3.4346,5.9248a45.9052,45.9052,0,0,0-2.6621,5.753q-1.3755,3.7793.6875,3.52,2.0595-.2579,5.4951-3.1768a105.2215,105.2215,0,0,0,11.9346-11.7637q5.4111-6.2665,10.3906-11.5918a3.9118,3.9118,0,0,1,2.1465-1.2021,3.1937,3.1937,0,0,1,2.0605.3437,3.4213,3.4213,0,0,1,1.459,1.6319,4.1136,4.1136,0,0,1,.1719,2.6611,56.1665,56.1665,0,0,1-5.752,13.9961,102.0659,102.0659,0,0,1-10.3906,15.37,85.6185,85.6185,0,0,1-12.8789,12.88q-6.87,5.4975-13.0518,6.3535a18.2331,18.2331,0,0,1-7.7275-.6006,15.705,15.705,0,0,1-6.1816-3.52,17.7181,17.7181,0,0,1-4.1221-5.9248,18.7976,18.7976,0,0,1-1.5459-7.6426,35.82,35.82,0,0,1,.6016-6.5253,54.322,54.322,0,0,1,1.6308-6.5254q-2.9208,4.9819-6.1816,10.8183A64.9861,64.9861,0,0,1,210.57,653.084a30.0689,30.0689,0,0,1-9.1875,7.3848,16.4923,16.4923,0,0,1-11.5918,1.03q-7.3813-1.7152-10.4746-6.6972a24.1005,24.1005,0,0,1-3.5215-11.2491,41.7426,41.7426,0,0,1,1.2031-12.8789,69.0376,69.0376,0,0,1,3.8633-11.5918A99.4714,99.4714,0,0,1,195.63,595.2969a95.8341,95.8341,0,0,1,20.7793-18.6319,71.2629,71.2629,0,0,1,11.9346-6.44,54.682,54.682,0,0,1,13.4814-3.8633,39.9412,39.9412,0,0,1,13.5664.2569,27.5547,27.5547,0,0,1,12.3643,5.9248,7.3317,7.3317,0,0,1,2.6621,4.38,8.25,8.25,0,0,1-3.6065,8.414A7.2006,7.2006,0,0,1,261.7461,586.4531Z" fill="#e870a6"/><path d="M318.9307,597.4443a27.5873,27.5873,0,0,0,3.2627-6.955q.5156-2.3188-.6016-3.0918a4.2031,4.2031,0,0,0-3.3477-.2569,23.4749,23.4749,0,0,0-4.8945,1.8028q-2.6646,1.2876-5.3242,2.8339a36.0586,36.0586,0,0,0-4.3789,2.919q-6.1817,4.4678-8.07,7.6416-1.8925,3.18-1.0313,4.5508a2.3712,2.3712,0,0,0,2.0606.9453q1.5468.0879,3.6074,0a30.7624,30.7624,0,0,0,4.0351-.43,19.5082,19.5082,0,0,1,3.1768-.3438,21.8134,21.8134,0,0,1,10.39,1.3741,17.9745,17.9745,0,0,1,7.2988,5.3232,18.7509,18.7509,0,0,1,3.6914,8.1572,25.8514,25.8514,0,0,1-.0859,10.0469,32.1131,32.1131,0,0,0,6.2685-4.8086,78.28,78.28,0,0,0,5.5811-6.0107q2.5752-3.0909,4.6367-6.0967,2.061-3.0015,3.6064-4.8936a7.8039,7.8039,0,0,1,3.6924-2.92,2.9524,2.9524,0,0,1,2.833.3438,3.8741,3.8741,0,0,1,1.2022,2.747,7.6591,7.6591,0,0,1-1.3731,4.4649,160.5112,160.5112,0,0,1-13.91,21.7246A84.06,84.06,0,0,1,323.7393,653.6a43.0048,43.0048,0,0,1-9.8741,5.0654,68.6819,68.6819,0,0,1-12.0214,3.2627,64.819,64.819,0,0,1-12.2793,1.03,35.2832,35.2832,0,0,1-10.6465-1.6309,28.8436,28.8436,0,0,1-4.8946-2.3183,24.3158,24.3158,0,0,1-4.5507-3.4346,16.8682,16.8682,0,0,1-3.3487-4.4648,11.5935,11.5935,0,0,1-1.2881-5.4092,11.0637,11.0637,0,0,1,2.0606-6.5264,13.2571,13.2571,0,0,1,5.0664-4.3789,12.8534,12.8534,0,0,1,6.3535-1.2881,10.333,10.333,0,0,1,6.0967,2.4043,31.3851,31.3851,0,0,0,8.415,5.3233q1.03-.1685,4.2071-2.4893a59.3548,59.3548,0,0,0,6.3535-5.41,55.7041,55.7041,0,0,0,5.41-6.01q2.23-2.9194,1.3731-4.4658a2.5172,2.5172,0,0,0-2.4043-.9444,10.7455,10.7455,0,0,0-2.7471.43,35.1852,35.1852,0,0,1-8.5869.6866,28.7237,28.7237,0,0,1-8.4141-1.545,19.1811,19.1811,0,0,1-6.955-4.208,15.2815,15.2815,0,0,1-4.2071-7.6416,22.0631,22.0631,0,0,1-.5156-10.5615,32.9651,32.9651,0,0,1,3.7783-10.0459,42.9467,42.9467,0,0,1,6.6113-8.7578,58.6343,58.6343,0,0,1,7.9854-6.8692,55.1368,55.1368,0,0,1,9.5312-4.98,42.3273,42.3273,0,0,1,10.99-2.92,26.4591,26.4591,0,0,1,10.8183.8593,18.12,18.12,0,0,1,9.0166,6.1817,15.4163,15.4163,0,0,1,3.5206,8.8447,20.1418,20.1418,0,0,1-1.5459,9.0156,24.0895,24.0895,0,0,1-13.3086,12.88q-3.438,1.03-4.9805-.8594Q317.2134,600.5371,318.9307,597.4443Z" fill="#e870a6"/><path d="M380.0645,595.7266l-4.8086,8.5869q2.745-3.6064,5.4941-7.127,2.7452-3.5186,5.668-6.9551,3.4335-4.122,8.1562-9.3593a62.8424,62.8424,0,0,1,10.1328-9.1016,31.6907,31.6907,0,0,1,11.42-5.2373,17.2716,17.2716,0,0,1,12.1933,1.8887,15.6922,15.6922,0,0,1,5.666,4.8086,17.6277,17.6277,0,0,1,2.834,6.4394,21.7632,21.7632,0,0,1,.3438,7.2129,36.4089,36.4089,0,0,1-1.6319,7.2979,88.6225,88.6225,0,0,1-10.0459,20.1787q-6.2709,9.3618-12.2793,18.4609-2.9208,4.4678-3.3476,6.6973-.4307,2.2338.7715,2.6621,1.2011.4307,3.7793-.8594a27.0208,27.0208,0,0,0,5.666-4.0351,66.7508,66.7508,0,0,0,6.44-6.2686q3.0015-3.3486,6.0967-6.44,3.4335-3.6063,6.8691-7.2988,3.4337-3.69,6.8692-7.6416a6.1321,6.1321,0,0,1,3.0908-2.0605,3.2287,3.2287,0,0,1,2.5752.3427,3.3964,3.3964,0,0,1,1.375,2.1475,4.6586,4.6586,0,0,1-.5156,3.1768q-1.377,2.5752-3.7784,6.1816-2.4067,3.6064-5.0654,7.2988-2.666,3.6943-5.3242,7.127-2.6631,3.4365-4.3789,5.667-3.0909,4.122-6.9551,8.8437a47.4906,47.4906,0,0,1-8.5,8.1573,29.8893,29.8893,0,0,1-9.9609,4.8945,16.94,16.94,0,0,1-11.1621-.9443,17.8393,17.8393,0,0,1-7.6426-5.5811,19.8365,19.8365,0,0,1-3.6055-7.8145,24.8959,24.8959,0,0,1-.2578-9.0156,46.0644,46.0644,0,0,1,2.2324-9.0156,68.1432,68.1432,0,0,1,5.41-11.0762q3.1743-5.2368,6.6113-10.1318,3.4337-4.8955,7.041-9.6172a106.5812,106.5812,0,0,0,6.6973-9.874q1.8867-3.0923,1.2871-3.8643-.6036-.7734-2.919.3438a39.9749,39.9749,0,0,0-6.0107,3.8632q-3.6944,2.75-8.3281,6.8692a93.57,93.57,0,0,0-9.7891,9.875q-4.4677,5.24-8.93,10.7324-3.6065,4.4677-7.1269,8.8447-3.5215,4.3785-6.5254,8.93a73.7581,73.7581,0,0,0-5.3242,9.53,43.4008,43.4008,0,0,0-3.3477,10.8193,8.9045,8.9045,0,0,1-2.4043,4.9805,9.8164,9.8164,0,0,1-4.2939,2.5752,10.8826,10.8826,0,0,1-4.8936.2578,10.2882,10.2882,0,0,1-4.38-1.8027,10.1485,10.1485,0,0,1-3.95-5.8389,24.5578,24.5578,0,0,1-.6865-8.3291,58.3951,58.3951,0,0,1,1.5459-9.4453,95.6912,95.6912,0,0,1,2.834-9.4443q1.6333-4.5485,3.2617-8.4151,1.6349-3.8643,2.6621-6.0967,5.32-12.19,11.6778-23.7841,6.3515-11.5914,13.5664-22.5821,1.5468-2.4038,4.1211-6.3545,2.5766-3.9477,5.7539-8.1572,3.1758-4.2056,6.8691-8.2422a41.72,41.72,0,0,1,7.5557-6.6123,19.3853,19.3853,0,0,1,7.9853-3.1767,10.8693,10.8693,0,0,1,7.8994,1.9746,10.4745,10.4745,0,0,1,4.8086,6.955,14.2845,14.2845,0,0,1-1.03,8.6729,47.9122,47.9122,0,0,1-4.8946,8.5,97.6592,97.6592,0,0,1-7.1269,8.7588q-4.1206,4.5513-9.3594,9.874-5.24,5.3247-11.5918,11.6777Z" fill="#e870a6"/><path d="M509.2012,536.3086q4.29,3.4365,4.8945,7.8135a21.3211,21.3211,0,0,1-.7725,9.0156,36.7477,36.7477,0,0,1-4.0361,8.93q-2.6646,4.2949-4.8945,7.2129a21.6028,21.6028,0,0,1,4.98,3.8642,35.4107,35.4107,0,0,1,3.95,4.8946,108.3536,108.3536,0,0,0,11.334,1.373q5.32.3473,10.39.1719a86.0833,86.0833,0,0,0,10.1318-.9444q5.0625-.7734,10.5615-1.9746a6.6212,6.6212,0,0,1,3.8633.086,3.5156,3.5156,0,0,1,1.9746,1.7168,3.3333,3.3333,0,0,1,0,2.5761,5.2912,5.2912,0,0,1-1.8886,2.49,56.5292,56.5292,0,0,1-10.99,6.6113,89.5787,89.5787,0,0,1-11.5918,4.3789,105.3511,105.3511,0,0,1-10.8193,2.6621,65.3685,65.3685,0,0,1-8.5,1.1162,61.885,61.885,0,0,1-5.3242,20.2637,121.5283,121.5283,0,0,1-9.6162,17.6885,97.7213,97.7213,0,0,1-10.99,13.0508,51.6087,51.6087,0,0,1-13.91,9.9609A33.7511,33.7511,0,0,1,467.9,661.9277a31.2445,31.2445,0,0,1-10.39-.5146,25.1,25.1,0,0,1-9.2724-4.208,19.4452,19.4452,0,0,1-6.5264-8.2422,29.9643,29.9643,0,0,1-2.5762-13.8242,62.0769,62.0769,0,0,1,2.49-14.5977,100.26,100.26,0,0,1,5.4092-14.2529q3.2607-6.9551,6.1826-12.794a372.2029,372.2029,0,0,1,19.5771-33.4873q8.5841-12.706,15.3692-19.0615,6.7821-6.3516,11.9355-7.041A11.6934,11.6934,0,0,1,509.2012,536.3086Zm-27.3047,88.6123q9.7881-14.08,12.8789-27.4766a22.7491,22.7491,0,0,1-5.58-3.0918,13.9337,13.9337,0,0,1-4.0361-4.9795,48.814,48.814,0,0,0-6.0108,7.47q-2.9208,4.38-5.4951,9.0156-2.5767,4.6377-4.7217,9.0156-2.15,4.38-3.5214,7.2989a81.7326,81.7326,0,0,0-4.5508,12.5361q-1.1192,4.6362-.43,6.5254a2.1978,2.1978,0,0,0,2.834,1.46,13.3919,13.3919,0,0,0,5.1523-2.747,52.5519,52.5519,0,0,0,6.5254-6.1827A83.7573,83.7573,0,0,0,481.8965,624.9209Z" fill="#e870a6"/><path d="M641.2607,576.3213a5.0743,5.0743,0,0,1,3.5206.1719,3.0987,3.0987,0,0,1,1.6308,1.8886,3.7587,3.7587,0,0,1-.3428,2.6621,5.8938,5.8938,0,0,1-2.4043,2.49,114.21,114.21,0,0,1-20.0068,9.96,80.55,80.55,0,0,1-20.35,4.9805,60.9561,60.9561,0,0,1-3.1768,14.3389,123.1237,123.1237,0,0,1-5.4091,13.1377,97.1922,97.1922,0,0,1-5.5821,9.96,94.24,94.24,0,0,1-6.9551,9.5313,66.6249,66.6249,0,0,1-8.2421,8.3281,38.5352,38.5352,0,0,1-9.6172,6.0108A28.3051,28.3051,0,0,1,548.1836,662.1a30.44,30.44,0,0,1-13.9961-6.0107,31.3134,31.3134,0,0,1-9.4443-12.1924,29.832,29.832,0,0,1-2.3184-16.0567,75.0512,75.0512,0,0,1,7.3838-25.1582A81.8732,81.8732,0,0,1,544.9209,581.13a70.8418,70.8418,0,0,1,9.3594-8.1572,42.3317,42.3317,0,0,1,10.9043-5.753,21.3881,21.3881,0,0,1,4.122-1.1162,35.21,35.21,0,0,1,4.8936-.5156,19.1157,19.1157,0,0,1,4.8086.43,13.0945,13.0945,0,0,1,4.208,1.7178,17.3777,17.3777,0,0,1,8.5859,3.1767,28.0435,28.0435,0,0,1,7.0411,6.9551,84.919,84.919,0,0,0,21.7236,1.5449A135.7037,135.7037,0,0,0,641.2607,576.3213Zm-87.2382,33.4873a69.4474,69.4474,0,0,0-6.3536,13.5664,55.8523,55.8523,0,0,0-2.92,12.1924q-.5156,5.1519,1.2881,7.1269t6.6113-1.6308a71.3727,71.3727,0,0,0,7.4707-6.7842,73.9425,73.9425,0,0,0,6.4395-7.8135,88.1318,88.1318,0,0,0,6.0107-9.0156,80.5385,80.5385,0,0,0,4.8086-9.7022q.857-2.4038,1.7168-5.0664a29.3984,29.3984,0,0,0,1.2022-5.7529,18.728,18.728,0,0,1-4.8946-2.49,18.5284,18.5284,0,0,1-4.3789-4.5508,57.2492,57.2492,0,0,0-9.4453,9.1875A87.0849,87.0849,0,0,0,554.0225,609.8086Z" fill="#e870a6"/><path d="M686.2539,586.4531a37.4173,37.4173,0,0,0-16.7432,1.7178,55.0968,55.0968,0,0,0-14.8544,7.8135A76.4759,76.4759,0,0,0,642.2051,607.49a94.7632,94.7632,0,0,0-9.53,12.9659q-6.87,11.3334-6.6113,14.8544.2564,3.5215,4.7217,1.1163t11.5918-9.7891A135.7046,135.7046,0,0,0,656.5449,608.95q1.7139-2.4037,3.6924-4.9805a37.47,37.47,0,0,1,4.293-4.7226,22.4834,22.4834,0,0,1,5.2373-3.6065,18.1748,18.1748,0,0,1,6.3545-1.8027,13.279,13.279,0,0,1,6.955,1.03,9.7773,9.7773,0,0,1,4.293,3.8632,9.9952,9.9952,0,0,1,1.2022,5.9249,16.755,16.755,0,0,1-2.49,7.2128,50.5425,50.5425,0,0,1-2.747,4.3789q-1.72,2.4918-3.5205,5.4092-1.8033,2.9225-3.4346,5.9248a45.7488,45.7488,0,0,0-2.6621,5.753q-1.377,3.7793.6865,3.52,2.061-.2579,5.4961-3.1768A105.3043,105.3043,0,0,0,691.835,621.915q5.41-6.2665,10.39-11.5918a3.9151,3.9151,0,0,1,2.1465-1.2021,3.1925,3.1925,0,0,1,2.0605.3437,3.4276,3.4276,0,0,1,1.46,1.6319,4.1136,4.1136,0,0,1,.1719,2.6611,56.1743,56.1743,0,0,1-5.753,13.9961,102.0512,102.0512,0,0,1-10.39,15.37,85.67,85.67,0,0,1-12.88,12.88q-6.87,5.4975-13.0508,6.3535a18.2365,18.2365,0,0,1-7.7285-.6006,15.712,15.712,0,0,1-6.1816-3.52,17.7325,17.7325,0,0,1-4.1221-5.9248,18.797,18.797,0,0,1-1.5449-7.6426,35.8185,35.8185,0,0,1,.6006-6.5253,54.3279,54.3279,0,0,1,1.6318-6.5254q-2.9223,4.9819-6.1826,10.8183a65.0431,65.0431,0,0,1-7.3838,10.6475,30.0807,30.0807,0,0,1-9.1875,7.3848,16.4928,16.4928,0,0,1-11.5918,1.03q-7.3813-1.7152-10.4756-6.6972a24.111,24.111,0,0,1-3.52-11.2491,41.7352,41.7352,0,0,1,1.2022-12.8789A69.0258,69.0258,0,0,1,605.37,619.082a99.4428,99.4428,0,0,1,14.7686-23.7851A95.79,95.79,0,0,1,640.918,576.665a71.2264,71.2264,0,0,1,11.9345-6.44,54.689,54.689,0,0,1,13.4805-3.8633,39.947,39.947,0,0,1,13.5674.2569,27.5588,27.5588,0,0,1,12.3642,5.9248,7.33,7.33,0,0,1,2.6612,4.38,8.2469,8.2469,0,0,1-3.6055,8.414A7.2044,7.2044,0,0,1,686.2539,586.4531Z" fill="#e870a6"/><path d="M681.6162,634.8809q3.9537-5.4946,7.6426-10.8194,3.6944-5.32,7.126-10.9043,3.438-5.578,6.6123-11.6777a133.3432,133.3432,0,0,0,5.9248-13.1367q-2.5767-3.0923-2.5762-8.5869a13.96,13.96,0,0,1,1.9746-7.0411,20.431,20.431,0,0,1,4.9805-5.8388,19.9731,19.9731,0,0,1,6.6113-3.52,14.76,14.76,0,0,1,7.2129-.4287,12.0932,12.0932,0,0,1,6.8691,3.9492,11.87,11.87,0,0,1,2.7471,6.5263,74.994,74.994,0,0,1,8.2432,3.1768,28.1123,28.1123,0,0,1,7.041,4.5508,19.6239,19.6239,0,0,1,4.8086,6.4394,17.9841,17.9841,0,0,1,1.374,8.8448,31.7193,31.7193,0,0,1-2.2324,9.53,68.0744,68.0744,0,0,1-4.6367,9.3594q-2.7495,4.6362-5.667,8.93-2.9225,4.295-5.3242,8.415a46.6715,46.6715,0,0,0-2.8331,5.5811,7.7769,7.7769,0,0,0-.8593,4.0361q.2577,1.3755,2.1474.8584,1.8867-.5156,6.3536-3.95a109.6156,109.6156,0,0,0,13.7382-12.5361q6.3516-6.8658,12.708-13.7383l2.4043-2.4043a5.5476,5.5476,0,0,1,2.7471-1.5449,2.919,2.919,0,0,1,2.6621.5146,3.5118,3.5118,0,0,1,1.1162,2.2325q.17,1.3768-1.2881,4.6367-1.46,3.2637-3.4345,6.8691-1.9761,3.6064-4.0352,6.7832-2.061,3.18-2.92,4.5508-3.0909,4.6377-7.126,9.9609a65.9028,65.9028,0,0,1-9.0166,9.7022,38.9541,38.9541,0,0,1-10.7324,6.7832,20.761,20.761,0,0,1-12.1074,1.2021,16.6834,16.6834,0,0,1-11.334-7.2978,23.4448,23.4448,0,0,1-3.9492-13.31,30.1677,30.1677,0,0,1,3.0049-12.45,137.5223,137.5223,0,0,1,6.5253-12.622q3.5185-6.0089,6.5264-10.8194,3.0015-4.8047,3.0049-7.3838,0-1.3725-2.2324-1.7177-2.2339-.3414-3.6065-.6866-3.0908,4.4679-6.6113,9.1875-3.5216,4.7256-7.127,9.2735-3.6064,4.5513-7.2988,8.8437-3.6943,4.295-6.9551,7.8994A75.202,75.202,0,0,1,688.6572,641.32q-5.1517,3.6959-8.0713,4.208-2.918.5142-3.0048-2.0615Q677.4961,640.8916,681.6162,634.8809Z" fill="#e870a6"/><path d="M864.1631,613.415a16.1454,16.1454,0,0,0,1.46-1.7177,7.3445,7.3445,0,0,1,1.8028-1.7168,4.41,4.41,0,0,1,2.0605-.7735,3.14,3.14,0,0,1,2.2325.9453,3.0387,3.0387,0,0,1,1.1162,2.2325,7.1445,7.1445,0,0,1-.4287,2.833,24.9721,24.9721,0,0,1-1.2022,2.834q-.6885,1.3755-1.03,2.2324A113.6864,113.6864,0,0,1,857.38,641.9219a70.06,70.06,0,0,1-17.4307,16.8291,22.1317,22.1317,0,0,1-6.6113,2.834,14.9852,14.9852,0,0,1-7.2988.0859,12.5506,12.5506,0,0,1-7.6416-4.9805,19.3952,19.3952,0,0,1-3.3487-8.5869,28.2424,28.2424,0,0,1,.3428-9.7881,26.3224,26.3224,0,0,1,3.2637-8.5869q-2.2339,3.438-4.8946,7.5567-2.6644,4.12-5.7529,8.2431-3.0907,4.1207-6.4394,7.8135a32.9285,32.9285,0,0,1-7.127,6.0107,20.6836,20.6836,0,0,1-7.8135,2.919,14.1759,14.1759,0,0,1-8.3291-1.46,19.8715,19.8715,0,0,1-9.4453-7.8994,24.9514,24.9514,0,0,1-3.3486-10.99A42.2119,42.2119,0,0,1,766.6211,629.3a78.968,78.968,0,0,1,4.207-12.88,101.1642,101.1642,0,0,1,5.8389-11.6777q3.1758-5.41,5.9248-9.1875a112.4014,112.4014,0,0,1,12.45-14.3389,62.8328,62.8328,0,0,1,15.37-11.0771,37.1913,37.1913,0,0,1,6.8692-2.5752,34.8265,34.8265,0,0,1,7.6416-1.2022,24.0314,24.0314,0,0,1,7.5566.8584,15.2808,15.2808,0,0,1,6.4394,3.6065,8.2293,8.2293,0,0,1,2.2325,3.6064q1.03-2.7452,2.834-6.9551,1.8016-4.2069,4.2929-8.8447,2.4873-4.6362,5.4951-9.2724a64.4165,64.4165,0,0,1,6.2686-8.2432,30.9565,30.9565,0,0,1,6.7832-5.7529,12.3956,12.3956,0,0,1,7.126-1.9756,12.2508,12.2508,0,0,1,5.7529,2.0615,11.3231,11.3231,0,0,1,3.7783,4.293,14.32,14.32,0,0,1,1.46,5.667,15.3775,15.3775,0,0,1-.8584,6.0107,37.7389,37.7389,0,0,1-3.6065,7.2979q-2.2338,3.5229-4.8086,6.955-2.5766,3.438-5.2382,6.9551-2.6631,3.5215-5.2373,7.127-6.5289,12.3647-13.2227,25.0722A198.2119,198.2119,0,0,0,840.8076,629.9q-1.2025,3.438.5156,4.4648,1.7139,1.0313,5.8389-3.0908,2.5752-2.5752,7.041-6.9551Q858.6665,619.9409,864.1631,613.415Zm-41.2149-24.9013a55.34,55.34,0,0,0-10.3037,8.6728,119.2518,119.2518,0,0,0-9.7031,11.5918,102.5463,102.5463,0,0,0-7.8994,12.45,63.36,63.36,0,0,0-4.8945,11.42q-1.2027,3.9522.43,5.0655,1.63,1.1192,5.753-1.8028a57.1208,57.1208,0,0,0,7.7275-6.2675q4.2906-4.0342,8.7588-8.9307,4.4634-4.894,8.6719-9.874,4.2056-4.9791,7.6416-8.93,1.8882-4.4634,3.6924-8.93t3.8642-8.9307q-2.9223.3473-5.9248.8594Q827.7559,585.4224,822.9482,588.5137Z" fill="#e870a6"/></g></svg>