<svg xmlns="http://www.w3.org/2000/svg" viewBox="0 0 1000 1000"><g id="backgroun"><rect width="1000" height="1000" fill="#fff"/></g><g id="logo"><rect x="749.0604" y="403.3065" width="8.8587" height="206.3348" transform="translate(-139.9124 344.9339) rotate(-23.6587)" fill="#f8f3f7"/><path d="M792.42,358.8524a94.867,94.867,0,1,1-124.9517-48.8556A94.8651,94.8651,0,0,1,792.42,358.8524Z" fill="#e870a6"/><path d="M705.5153,396.9s-49.7128-20.6807-49.1784-81.1309c0,0,15.782-14.5521,47.5585-13.74C703.8954,302.0284,676.5057,349.6271,705.5153,396.9Z" fill="#fdfadb"/><path d="M744.1987,310.2829S703.777,330.487,705.5153,396.9c0,0,21.0921-49.2664,69.0462-65.0767C774.5615,331.8229,759.8653,315.6859,744.1987,310.2829Z" fill="#fdfadb"/><path d="M705.5153,396.9s38.362-40.31,90.1044-29.693c0,0,6.1691,16.9706,4.7452,31.6176C800.3649,398.8242,760.9411,380.4585,705.5153,396.9Z" fill="#fdfadb"/><path d="M705.5153,396.9s57.1575,5.9547,83.4784,45.0236c0,0-11.7907,18.9271-20.1823,25.6458C768.8114,467.569,764.8409,435.2446,705.5153,396.9Z" fill="#fdfadb"/><path d="M705.5153,396.9s40.1141,47.883,21.1292,92.4955c0,0-19.9284,5.2509-36.1024,1.1738C690.5421,490.5689,721.1857,463.15,705.5153,396.9Z" fill="#fdfadb"/><path d="M622.7846,350.4712s17.4732,60.7643,82.7307,46.4284c0,0-45.4849,37.6062-94.8528,2.1715A80.3115,80.3115,0,0,1,622.7846,350.4712Z" fill="#fdfadb"/><path d="M623.7859,445.0687s59.3693-4.2265,81.7294-48.1691c0,0-2.1646,60.1288-58.412,74.764C647.1033,471.6636,628.6261,458.0972,623.7859,445.0687Z" fill="#fdfadb"/><path d="M790.7289,374.9706s-21.7616-59.6872-65.1328-66.67-78.9867,22.5107-89.59,39.2261c-10.6135,16.715,39.6912-32.8659,68.2679-26.277C788.0974,340.5729,793.7186,408.9777,790.7289,374.9706Z" fill="#fff" opacity="0.5"/><rect x="707.3997" y="489.6211" width="206.3325" height="8.8587" transform="translate(209.337 1228.6433) rotate(-82.0642)" fill="#f8f3f7"/><path d="M921.0752,388.7178a94.868,94.868,0,1,1-80.8264-107.0864A94.8677,94.8677,0,0,1,921.0752,388.7178Z" fill="#e870a6"/><path d="M827.1188,375.5861s-31.5061-43.6635.6258-94.8715c0,0,21.0683-4.1229,47.7106,13.2166C875.4552,293.9312,827.18,320.1236,827.1188,375.5861Z" fill="#fdfadb"/><path d="M905.4526,322.0819s-45.015-3.9726-78.3338,53.5042c0,0,43.78-30.909,92.908-19.2485C920.0268,356.3376,915.9645,334.8939,905.4526,322.0819Z" fill="#fdfadb"/><path d="M827.1188,375.5861s53.7952-14.2342,92.3026,21.9241c0,0-3.6359,17.6861-12.5211,29.4158C906.9,426.926,882.9436,390.6238,827.1188,375.5861Z" fill="#fdfadb"/><path d="M827.1188,375.5861s45.5629,35.0187,47.5111,82.0882c0,0-19.9589,9.9439-30.63,11.27C844,468.944,857.556,439.33,827.1188,375.5861Z" fill="#fdfadb"/><path d="M827.1188,375.5861s9.0781,61.8013-30.4677,89.8505c0,0-19.7255-5.97-31.3637-17.9158C765.2874,447.5208,805.7531,440.2216,827.1188,375.5861Z" fill="#fdfadb"/><path d="M780.9845,292.69s-16.9554,60.91,46.1343,82.8962c0,0-58.4459,8.1952-81.9223-47.8526A80.3105,80.3105,0,0,1,780.9845,292.69Z" fill="#fdfadb"/><path d="M732.27,373.7851s52.7769,27.51,94.8493,1.801c0,0-33.3493,50.0765-88.9237,33.0705C738.1951,408.6566,729.567,387.419,732.27,373.7851Z" fill="#fdfadb"/><path d="M911.1888,401.5589s12.741-62.2408-20.54-90.9127-79.0677-22.2146-96.862-13.5359c-17.7976,8.6756,51.0321-7.1939,71.914,13.3939C926.9707,370.8813,895.918,432.089,911.1888,401.5589Z" fill="#fff" opacity="0.5"/><text transform="translate(98.7861 487.6309)" font-size="171.7287" fill="#e870a6" font-family="AveFedanPERSONALUSEONLY, Ave Fedan PERSONAL USE ONLY">Sweet</text><text transform="translate(77.9985 662.3574)" font-size="171.7287" fill="#e870a6" font-family="AveFedanPERSONALUSEONLY, Ave Fedan PERSONAL USE ONLY">Dashb<tspan x="448.5474" y="0" letter-spacing="-0.011em">o</tspan><tspan x="531.4927" y="0">ard</tspan></text></g></svg>