<svg id="candy" xmlns="http://www.w3.org/2000/svg" viewBox="0 0 100 100"><path d="M100,50.2627a50,50,0,1,1-50.001-50A50,50,0,0,1,100,50.2627Z" fill="#e870a6"/><path d="M49.9991,50.2621S30.3686,29.769,43.4053.6958c0,0,10.6963-3.6889,25.8678,3.4184C69.2731,4.1142,45.9852,21.3075,49.9991,50.2621Z" fill="#fdfadb"/><path d="M86.9845,16.62S63.198,17.83,49.9991,50.2621c0,0,20.5976-19.3274,47.0916-16.8246C97.0907,33.4375,93.4061,22.5408,86.9845,16.62Z" fill="#fdfadb"/><path d="M49.9991,50.2621s27.0415-11.3541,49.779,4.7107c0,0-.6077,9.4969-4.39,16.2677C95.3882,71.2405,80.2352,54.0391,49.9991,50.2621Z" fill="#fdfadb"/><path d="M49.9991,50.2621S76.3363,65.2173,80.7868,89.6443c0,0-9.6927,6.6465-15.1661,8.1169C65.6207,97.7612,70.5365,81.3148,49.9991,50.2621Z" fill="#fdfadb"/><path d="M49.9991,50.2621S59.2458,81.8586,40.65,99.3843c0,0-10.7317-1.6771-17.678-7.0637C22.972,92.3206,43.5616,85.5587,49.9991,50.2621Z" fill="#fdfadb"/><path d="M19.8712,10.3576s-4.4072,33.03,30.1279,39.9045c0,0-29.9095,8.5411-46.2521-19.002A42.3273,42.3273,0,0,1,19.8712,10.3576Z" fill="#fdfadb"/><path d="M.3587,56.2409s29.555,10.51,49.64-5.9788c0,0-13.7546,28.5714-44.0036,23.7486C5.9955,74.0107-.0574,63.5546.3587,56.2409Z" fill="#fdfadb"/><path d="M95.7762,57.6867s2.11-33.4176-17.3533-45.9559-42.8919-5.8278-51.547,0C18.2188,17.5578,52.9886,4.2534,65.39,13.4765,101.7762,40.5225,90.0323,74.7366,95.7762,57.6867Z" fill="#fff" opacity="0.5"/></svg>