<svg id="favicon" xmlns="http://www.w3.org/2000/svg" viewBox="0 0 32 32"><path d="M32,16.0841a16,16,0,1,1-16-16A16,16,0,0,1,32,16.0841Z" fill="#e870a6"/><path d="M16,16.0839A14.657,14.657,0,0,1,13.89.2227s3.4228-1.18,8.2777,1.0939C22.1674,1.3166,14.7153,6.8184,16,16.0839Z" fill="#fdfadb"/><path d="M27.835,5.3184S20.2234,5.7056,16,16.0839c0,0,6.5912-6.1848,15.0693-5.3839A15.1907,15.1907,0,0,0,27.835,5.3184Z" fill="#fdfadb"/><path d="M16,16.0839s8.6533-3.6333,15.9293,1.5074a14.3875,14.3875,0,0,1-1.4048,5.2057S25.6753,17.2925,16,16.0839Z" fill="#fdfadb"/><path d="M16,16.0839s8.4279,4.7856,9.8521,12.6023a23.2063,23.2063,0,0,1-4.8532,2.5974S22.5717,26.0207,16,16.0839Z" fill="#fdfadb"/><path d="M16,16.0839s2.959,10.1109-2.9917,15.7191a14.359,14.359,0,0,1-5.657-2.26S13.94,27.3788,16,16.0839Z" fill="#fdfadb"/><path d="M6.3588,3.3144s-1.41,10.57,9.6409,12.77c0,0-9.571,2.7331-14.8007-6.0807A13.5452,13.5452,0,0,1,6.3588,3.3144Z" fill="#fdfadb"/><path d="M.1148,17.9971S9.5724,21.36,16,16.0839c0,0-4.4015,9.1428-14.0811,7.5995C1.9186,23.6834-.0184,20.3375.1148,17.9971Z" fill="#fdfadb"/><path d="M30.6484,18.46s.6753-10.6936-5.5531-14.7059S11.37,1.8889,8.6,3.7539s8.3561-2.3928,12.3246.5586C32.5684,12.9672,28.81,23.9157,30.6484,18.46Z" fill="#fff" opacity="0.5"/></svg>